<svg width="71" height="150" viewBox="0 0 71 150" fill="none" xmlns="http://www.w3.org/2000/svg">
<path d="M38.2363 121.605C27.3698 112.437 22.7469 99.2099 22.4493 87.9658C22.2547 81.025 23.5061 74.5703 25.1003 68.2938C26.6945 62.0173 28.4258 55.8121 30.7055 49.8919C33.2102 43.2918 36.6746 37.1906 41.8898 32.5972C42.4575 32.0954 41.9845 30.8535 41.3054 30.2349C40.4206 29.5094 39.4293 29.5917 38.8616 30.0934C29.1236 38.6442 25.5293 52.1815 22.1476 64.8333C18.8971 77.0884 16.8677 90.5095 22.799 104.881C25.6495 111.808 30.2583 118.52 36.5327 123.84C38.4019 125.476 40.1928 123.219 38.2363 121.605Z" fill="black"/>
<path d="M20.4305 35.4418C26.6973 33.3948 33.5502 32.315 40.8377 32.2379C40.1998 31.6364 39.5618 31.035 38.8641 30.4034C38.2468 36.2497 38.1996 42.2713 38.8581 48.4807C38.9499 49.2547 39.54 50 40.441 50.2302C41.2064 50.4481 42.0436 50.0304 41.9518 49.2565C41.2933 43.0471 41.2807 36.9953 41.9578 31.1792C42.0334 30.3217 40.8892 29.3531 39.9842 29.3447C32.4854 29.4273 25.3614 30.4824 18.8515 32.6308C18.1539 32.8389 17.855 33.5279 18.2936 34.3087C18.7322 35.0895 19.717 35.6979 20.4305 35.4418Z" fill="black"/>
</svg>
