<svg width="204" height="200" viewBox="0 0 204 200" fill="none" xmlns="http://www.w3.org/2000/svg">
<path d="M160.09 82.9246C169.216 85.6277 177.584 90.4339 184.522 96.9583C191.461 103.483 196.778 111.544 200.048 120.496C203.744 129.775 204.876 139.879 203.324 149.748C201.773 159.616 197.595 168.883 191.23 176.574C186.796 182.682 181.175 187.829 174.706 191.708C168.236 195.587 161.051 198.116 153.582 199.145C150.365 199.669 147.114 199.95 143.855 199.986H34.5493C29.9049 200.119 25.2835 199.286 20.9773 197.538C16.671 195.791 12.7735 193.167 9.5311 189.834C6.28873 186.5 3.77204 182.529 2.1401 178.171C0.50817 173.814 -0.203507 169.164 0.0500616 164.517C0.0500616 121.268 0.0500616 78.0879 0.0500616 34.8381C-0.225714 29.1946 0.909991 23.5714 3.35408 18.4791C5.79817 13.3868 9.47324 8.98654 14.0457 5.67784C19.1297 2.02929 25.2163 0.0459646 31.4702 0C57.5021 0 83.6039 0 109.636 0C122.215 0.273944 134.231 5.27859 143.295 14.0194C152.363 21.7053 158.88 31.974 161.979 43.46C162.84 47.332 163.355 51.2729 163.519 55.2363C164.438 63.3157 163.578 71.4987 161 79.2094C160.601 80.4223 160.297 81.6644 160.09 82.9246ZM67.6489 116.851C63.1003 116.851 58.8317 116.851 54.563 116.851C50.4736 116.662 46.4029 117.514 42.7315 119.328C39.0601 121.143 35.9079 123.86 33.5696 127.226C30.6225 130.883 28.9011 135.378 28.6498 140.072C28.3986 144.766 29.6303 149.419 32.17 153.372C34.4519 157.133 37.6864 160.224 41.5454 162.329C45.4044 164.434 49.7506 165.479 54.1431 165.358H144.345C145.954 165.358 147.634 165.358 149.243 165.358C153.317 165.185 157.278 163.966 160.746 161.817C164.214 159.669 167.072 156.665 169.047 153.091C171.012 149.304 172.021 145.093 171.986 140.825C172.039 135.632 170.319 130.578 167.112 126.499C163.905 122.419 159.403 119.56 154.352 118.394C146.433 117.457 138.463 117.012 130.489 117.062C119.083 117.062 107.676 117.062 96.27 117.062C92.2481 117.185 88.3185 115.84 85.2134 113.276C81.0847 109.982 76.6061 107.038 72.2675 103.954C71.0079 103.112 69.6083 102.482 67.6489 101.36V116.851ZM102.218 94.9111V80.8917C103.623 80.8595 105.026 80.7425 106.417 80.5413C109.583 80.3176 112.662 79.4029 115.438 77.8614C118.214 76.3198 120.62 74.1887 122.487 71.6174C124.353 69.0461 125.636 66.0969 126.245 62.9765C126.854 59.8561 126.774 56.6401 126.011 53.554C124.649 49.0827 121.955 45.1353 118.291 42.2411C114.626 39.3469 110.165 37.6443 105.507 37.3616C89.1322 37.3616 72.6873 37.3616 56.5224 37.3616C54.6054 37.3375 52.6953 37.5973 50.8542 38.1327C46.0491 39.3422 41.8258 42.2151 38.9316 46.2431C36.0373 50.2712 34.6585 55.1948 35.0391 60.1431C35.0572 64.4042 36.4209 68.5503 38.9349 71.9877C41.4489 75.4251 44.9842 77.9775 49.0347 79.2795C52.1567 80.1787 55.3757 80.6964 58.6217 80.8216C65.1297 80.8216 71.6377 80.8216 78.1456 80.8216C80.3225 80.8004 82.4514 81.4622 84.2337 82.7143C90.1119 86.7098 95.7102 90.495 102.218 94.9111Z" fill="#062E47"/>
<path d="M120.038 145C117.38 145 116.088 143.61 116.016 140.612C115.967 140.043 116.031 139.469 116.205 138.926C116.379 138.383 116.659 137.881 117.027 137.451C117.396 137.021 117.847 136.671 118.352 136.422C118.857 136.173 119.406 136.031 119.966 136.004C121.181 135.956 122.369 136.373 123.299 137.171C124.229 137.969 124.833 139.091 124.993 140.319C125.136 143.025 123.126 144.854 120.038 145Z" fill="#DC157C"/>
<path d="M81.5527 143.995C78.3956 143.995 77.0006 142.824 77.0006 140.413C76.9908 139.837 77.1033 139.265 77.3314 138.731C77.5595 138.196 77.8986 137.71 78.3291 137.299C78.7596 136.889 79.2728 136.563 79.8389 136.341C80.4049 136.118 81.0125 136.004 81.6261 136.004C82.241 135.978 82.8544 136.079 83.4227 136.301C83.991 136.523 84.5001 136.86 84.9138 137.288C85.3275 137.715 85.6355 138.223 85.816 138.775C85.9965 139.327 86.045 139.91 85.958 140.482C85.8111 143.444 85.0035 144.064 81.5527 143.995Z" fill="#DC157C"/>
<path d="M100.531 144C97.466 144 95.8568 142.632 96.01 140.239C96.1256 139.161 96.6532 138.152 97.5044 137.38C98.3555 136.608 99.4784 136.121 100.684 136C101.292 136.006 101.892 136.126 102.445 136.351C102.998 136.577 103.493 136.902 103.897 137.308C104.301 137.713 104.605 138.19 104.791 138.706C104.977 139.223 105.04 139.768 104.976 140.308C104.976 143.248 104.133 144 100.531 144Z" fill="#DC157C"/>
<path d="M61.5325 55C64.5224 55 66.1997 56.6398 65.981 59.1677C65.7934 60.2243 65.2164 61.1858 64.3503 61.8848C63.4842 62.5839 62.3838 62.9764 61.2408 62.9938C60.6705 63.0245 60.0998 62.9407 59.5669 62.748C59.0339 62.5553 58.5511 62.2582 58.1506 61.8766C57.7502 61.4949 57.4414 61.0375 57.2448 60.535C57.0483 60.0325 56.9686 59.4964 57.0111 58.9627C57.084 56.0932 58.3238 55 61.5325 55Z" fill="#DC157C"/>
<path d="M99.9026 62.9699C99.3628 63.0044 98.8224 62.9131 98.32 62.7025C97.8175 62.4919 97.3652 62.1673 96.9954 61.7517C96.6255 61.3361 96.3471 60.8397 96.1801 60.2979C96.013 59.7561 95.9613 59.1822 96.0287 58.6169C96.0287 56.1684 97.5137 54.9441 100.096 55.0121C100.633 54.9669 101.172 55.0485 101.675 55.2509C102.178 55.4533 102.631 55.7715 103.003 56.1821C103.374 56.5927 103.653 57.0854 103.821 57.6243C103.988 58.1632 104.039 58.7347 103.97 59.2971C103.956 59.8285 103.837 60.3509 103.619 60.8307C103.402 61.3105 103.092 61.7371 102.709 62.083C102.326 62.429 101.878 62.6866 101.395 62.8394C100.912 62.9921 100.403 63.0366 99.9026 62.9699Z" fill="#DC157C"/>
<path d="M80.8541 62.9537C78.1982 62.9537 76.8702 61.3257 77.01 58.409C77.1498 55.4923 78.1982 54.8818 81.3434 55.0175C84.4885 55.1531 85.1176 56.2384 84.9778 59.1552C85.0392 59.6864 84.9728 60.2243 84.784 60.7265C84.5952 61.2288 84.2889 61.6817 83.8894 62.0497C83.4898 62.4178 83.0078 62.6909 82.4812 62.8478C81.9545 63.0046 81.3976 63.0409 80.8541 62.9537Z" fill="#DC157C"/>
</svg>
