<svg width="205" height="200" viewBox="0 0 205 200" fill="none" xmlns="http://www.w3.org/2000/svg">
<path d="M179.778 97.0139H18.5557V181.13H179.778V97.0139Z" fill="#DC157C"/>
<path d="M130.711 26.917H25.5653V97.0138H130.711V26.917Z" fill="#DC157C"/>
<path d="M160.362 82.9246C169.503 85.6277 177.885 90.4339 184.835 96.9583C191.786 103.483 197.112 111.544 200.387 120.496C204.09 129.775 205.223 139.879 203.669 149.748C202.115 159.616 197.93 168.883 191.555 176.574C187.113 182.682 181.482 187.829 175.002 191.708C168.522 195.587 161.325 198.116 153.843 199.145C150.62 199.669 147.363 199.95 144.099 199.986H34.6079C29.9557 200.119 25.3264 199.286 21.0128 197.538C16.6993 195.791 12.7951 193.167 9.54727 189.834C6.2994 186.5 3.77844 182.529 2.14373 178.171C0.509032 173.814 -0.203852 169.164 0.0501465 164.517C0.0501465 121.268 0.0501465 78.0879 0.0501465 34.8381C-0.226097 29.1946 0.911535 23.5714 3.35977 18.4791C5.80801 13.3868 9.48932 8.98654 14.0695 5.67784C19.1622 2.02929 25.259 0.0459646 31.5236 0C57.5996 0 83.7458 0 109.822 0C122.422 0.273944 134.458 5.27859 143.538 14.0194C152.621 21.7053 159.149 31.974 162.254 43.46C163.116 47.332 163.632 51.2729 163.796 55.2363C164.717 63.3157 163.855 71.4987 161.273 79.2094C160.873 80.4223 160.568 81.6644 160.362 82.9246ZM67.7637 116.851C63.2074 116.851 58.9315 116.851 54.6556 116.851C50.5592 116.662 46.4816 117.514 42.804 119.328C39.1264 121.143 35.9688 123.86 33.6265 127.226C30.6745 130.883 28.9501 135.378 28.6984 140.072C28.4468 144.766 29.6806 149.419 32.2246 153.372C34.5103 157.133 37.7503 160.224 41.6159 162.329C45.4814 164.434 49.835 165.479 54.235 165.358H144.59C146.202 165.358 147.884 165.358 149.497 165.358C153.577 165.185 157.545 163.966 161.018 161.817C164.492 159.669 167.356 156.665 169.334 153.091C171.302 149.304 172.313 145.093 172.278 140.825C172.331 135.632 170.608 130.578 167.396 126.499C164.183 122.419 159.674 119.56 154.614 118.394C146.681 117.457 138.698 117.012 130.711 117.062C119.285 117.062 107.859 117.062 96.4333 117.062C92.4046 117.185 88.4683 115.84 85.358 113.276C81.2223 109.982 76.7361 107.038 72.3901 103.954C71.1283 103.112 69.7264 102.482 67.7637 101.36V116.851ZM102.392 94.9111V80.8917C103.799 80.8595 105.204 80.7425 106.597 80.5413C109.769 80.3176 112.853 79.4029 115.634 77.8614C118.414 76.3198 120.824 74.1887 122.694 71.6174C124.564 69.0461 125.849 66.0969 126.459 62.9765C127.069 59.8561 126.989 56.6401 126.224 53.554C124.861 49.0827 122.162 45.1353 118.491 42.2411C114.82 39.3469 110.352 37.6443 105.686 37.3616C89.2834 37.3616 72.8107 37.3616 56.6183 37.3616C54.698 37.3375 52.7847 37.5973 50.9404 38.1327C46.1272 39.3422 41.8968 42.2151 38.9976 46.2431C36.0984 50.2712 34.7173 55.1948 35.0986 60.1431C35.1167 64.4042 36.4827 68.5503 39.001 71.9877C41.5192 75.4251 45.0606 77.9775 49.1179 79.2795C52.2452 80.1787 55.4697 80.6964 58.7212 80.8216C65.2402 80.8216 71.7592 80.8216 78.2782 80.8216C80.4587 80.8004 82.5912 81.4622 84.3766 82.7143C90.2648 86.7098 95.8725 90.495 102.392 94.9111Z" fill="white"/>
<path d="M119.916 144.68C117.322 144.68 116.06 143.348 115.99 140.474C115.943 139.929 116.005 139.38 116.175 138.859C116.345 138.339 116.618 137.858 116.978 137.445C117.338 137.033 117.777 136.697 118.27 136.459C118.763 136.221 119.299 136.084 119.846 136.058C121.032 136.013 122.192 136.412 123.099 137.177C124.007 137.941 124.596 139.017 124.752 140.194C124.893 142.787 122.93 144.54 119.916 144.68Z" fill="white"/>
<path d="M81.5027 144.189C78.4885 144.189 77.1567 142.997 77.1567 140.544C77.1474 139.958 77.2547 139.376 77.4725 138.832C77.6903 138.289 78.0141 137.793 78.4251 137.376C78.8361 136.958 79.3261 136.627 79.8665 136.401C80.4069 136.174 80.9869 136.058 81.5728 136.058C82.1598 136.031 82.7455 136.135 83.288 136.36C83.8306 136.586 84.3167 136.929 84.7116 137.364C85.1066 137.799 85.4007 138.316 85.573 138.878C85.7453 139.439 85.7916 140.032 85.7085 140.614C85.5683 143.628 84.7972 144.259 81.5027 144.189Z" fill="white"/>
<path d="M100.499 144.259C97.695 144.259 96.223 142.858 96.3632 140.404C96.4689 139.299 96.9515 138.264 97.7301 137.473C98.5087 136.681 99.5358 136.182 100.639 136.058C101.195 136.065 101.744 136.187 102.25 136.418C102.756 136.649 103.208 136.983 103.577 137.399C103.947 137.815 104.226 138.303 104.396 138.832C104.566 139.362 104.623 139.921 104.564 140.474C104.564 143.488 103.793 144.259 100.499 144.259Z" fill="white"/>
<path d="M61.525 55.0259C64.399 55.0259 66.0112 56.7082 65.8009 59.3018C65.6207 60.3858 65.066 61.3722 64.2335 62.0894C63.401 62.8067 62.3433 63.2093 61.2446 63.2272C60.6965 63.2587 60.1479 63.1727 59.6356 62.975C59.1234 62.7773 58.6593 62.4725 58.2743 62.0809C57.8894 61.6894 57.5926 61.2201 57.4037 60.7046C57.2148 60.189 57.1382 59.639 57.179 59.0915C57.2491 56.1474 58.4408 55.0259 61.525 55.0259Z" fill="white"/>
<path d="M100.008 63.2975C99.4222 63.333 98.8355 63.2389 98.29 63.0219C97.7444 62.8049 97.2534 62.4703 96.8519 62.042C96.4503 61.6137 96.1481 61.1022 95.9667 60.5438C95.7853 59.9854 95.7292 59.3939 95.8024 58.8114C95.8024 56.2879 97.4146 55.0261 100.218 55.0962C100.801 55.0497 101.387 55.1337 101.932 55.3423C102.478 55.5509 102.971 55.8788 103.374 56.302C103.777 56.7251 104.08 57.233 104.262 57.7884C104.444 58.3438 104.499 58.9328 104.424 59.5123C104.409 60.06 104.279 60.5983 104.044 61.0928C103.808 61.5873 103.471 62.027 103.055 62.3835C102.639 62.74 102.153 63.0056 101.628 63.163C101.104 63.3204 100.552 63.3662 100.008 63.2975Z" fill="white"/>
<path d="M80.6615 63.2975C77.9978 63.2975 76.666 61.6152 76.8062 58.601C76.9464 55.5869 77.9978 54.956 81.1522 55.0962C84.3065 55.2364 84.9374 56.3579 84.7972 59.3721C84.8588 59.9211 84.7922 60.477 84.6028 60.996C84.4134 61.515 84.1063 61.983 83.7056 62.3634C83.3049 62.7437 82.8215 63.026 82.2933 63.1881C81.7651 63.3501 81.2066 63.3876 80.6615 63.2975Z" fill="white"/>
</svg>
