<svg width="886" height="321" viewBox="0 0 886 321" fill="none" xmlns="http://www.w3.org/2000/svg">
<path d="M885.385 236.966C882.803 241.142 878.867 244.304 874.234 245.926C869.601 247.547 864.552 247.529 859.931 245.874C857.105 245.45 854.502 244.095 852.533 242.025C850.563 239.955 849.339 237.287 849.056 234.443C848.795 232.85 848.453 231.272 848.031 229.714L844.642 231.763C832.58 239.753 818.763 244.703 804.373 246.189C786.944 248.434 769.242 245.414 753.543 237.518C741.003 231.573 730.03 222.772 721.504 211.821C712.978 200.869 707.136 188.071 704.447 174.453C701.798 163.098 701.444 151.329 703.406 139.835C705.368 128.342 709.607 117.357 715.873 107.525C723.25 95.5302 733.288 85.3944 745.209 77.9031C757.131 70.4117 770.616 65.7659 784.621 64.3253C798.626 62.8848 812.774 64.6882 825.97 69.5959C839.166 74.5036 851.056 82.3838 860.719 92.6264C872.713 104.987 880.917 120.525 884.361 137.402C884.361 139.216 885.149 141.029 885.621 142.842L885.385 236.966ZM748.105 185.411C745.977 191.402 744.007 197.078 741.958 202.596C741.328 204.251 740.54 205.985 741.958 207.089C743.219 207.748 744.679 207.917 746.056 207.562C749.67 206.663 753.182 205.395 756.537 203.778C758.61 202.581 760.961 201.951 763.354 201.951C765.747 201.951 768.098 202.581 770.171 203.778C780.584 209.624 792.752 211.527 804.451 209.139C832.191 203.226 856.857 180.05 849.292 142.763C847.76 135.33 844.713 128.294 840.339 122.093C835.966 115.892 830.361 110.66 823.874 106.724C817.388 102.788 810.16 100.232 802.642 99.2174C795.123 98.2025 787.476 98.7497 780.179 100.825C771.148 103.169 762.956 108.003 756.537 114.778C749.824 121.244 744.857 129.305 742.101 138.21C739.345 147.115 738.889 156.574 740.776 165.703C741.953 172.676 744.439 179.363 748.105 185.411Z" fill="#062E47"/>
<path d="M579.933 321C579.34 320.528 578.675 320.155 577.963 319.896C575.263 319.168 572.758 317.852 570.625 316.043C568.493 314.234 566.786 311.976 565.627 309.431C564.467 306.885 563.884 304.116 563.919 301.319C563.953 298.522 564.605 295.767 565.827 293.251C566.405 291.885 567.035 290.545 567.718 289.231C577.254 270.469 586.789 251.707 596.561 233.103C597.396 231.724 597.837 230.143 597.837 228.531C597.837 226.919 597.396 225.338 596.561 223.959C574.495 180.129 552.456 136.22 530.443 92.2323C528.373 88.4572 527.52 84.1346 528 79.8558C528.311 76.1102 529.808 72.5614 532.274 69.7258C534.74 66.8902 538.047 64.9157 541.712 64.0896C545.671 63.296 549.781 63.8129 553.421 65.5621C557.06 67.3114 560.032 70.198 561.887 73.7858L615.081 180.287C616.263 182.651 617.524 184.938 619.1 187.776C620.203 185.647 621.149 184.149 621.858 182.573C639.668 146.994 657.452 111.415 675.21 75.8354C676.384 73.4624 677.839 71.2391 679.544 69.2136C682.05 66.6263 685.267 64.8409 688.788 64.0831C692.309 63.3254 695.976 63.6294 699.324 64.9568C702.723 66.1892 705.659 68.4401 707.732 71.4026C709.805 74.3651 710.914 77.8951 710.909 81.5113C710.81 85.4937 709.668 89.3806 707.599 92.7841C691.838 124.317 676.076 155.849 660.315 187.381C640.824 226.482 621.333 265.582 601.841 304.682C600.354 307.631 598.585 310.429 596.561 313.038C595.155 314.999 593.344 316.633 591.249 317.83C589.155 319.027 586.827 319.759 584.425 319.975C583.873 319.975 583.401 320.527 582.928 320.921L579.933 321Z" fill="#062E47"/>
<path d="M180.229 116.197C190.507 119.237 199.93 124.642 207.744 131.979C215.557 139.317 221.545 148.382 225.227 158.451C229.39 168.885 230.665 180.249 228.918 191.346C227.17 202.444 222.465 212.866 215.298 221.515C210.304 228.384 203.974 234.173 196.689 238.535C189.403 242.897 181.312 245.742 172.9 246.899C169.278 247.488 165.616 247.804 161.946 247.845H38.8513C33.6211 247.994 28.4167 247.057 23.5672 245.092C18.7177 243.126 14.3285 240.176 10.6771 236.427C7.02567 232.678 4.19149 228.212 2.35368 223.312C0.51588 218.411 -0.285576 213.183 -1.95615e-05 207.956C-1.95615e-05 159.318 -1.95615e-05 110.758 -1.95615e-05 62.119C-0.310585 55.7722 0.968392 49.4484 3.72081 43.7216C6.47322 37.9947 10.6119 33.0462 15.7612 29.3253C21.4866 25.2221 28.3409 22.9916 35.3839 22.9399C64.6997 22.9399 94.0943 22.9399 123.41 22.9399C137.576 23.248 151.108 28.8763 161.316 38.7061C171.527 47.3498 178.866 58.898 182.357 71.8152C183.326 76.1696 183.906 80.6016 184.091 85.0588C185.125 94.145 184.157 103.347 181.254 112.019C180.804 113.383 180.462 114.78 180.229 116.197ZM76.1265 154.351C71.0042 154.351 66.197 154.351 61.3898 154.351C56.7845 154.138 52.2003 155.096 48.0657 157.137C43.9312 159.177 40.3814 162.233 37.748 166.018C34.4292 170.132 32.4906 175.187 32.2077 180.465C31.9247 185.744 33.3118 190.977 36.1719 195.422C38.7416 199.653 42.3842 203.128 46.73 205.495C51.0758 207.863 55.9704 209.038 60.917 208.902H162.498C164.31 208.902 166.202 208.902 168.014 208.902C172.602 208.707 177.062 207.336 180.968 204.92C184.873 202.504 188.092 199.125 190.316 195.107C192.529 190.848 193.665 186.111 193.626 181.311C193.686 175.472 191.749 169.788 188.137 165.2C184.526 160.613 179.456 157.397 173.767 156.086C164.849 155.032 155.874 154.532 146.894 154.588C134.049 154.588 121.204 154.588 108.358 154.588C103.829 154.727 99.4036 153.214 95.9068 150.331C91.2573 146.626 86.2137 143.315 81.3277 139.846C79.9092 138.9 78.3331 138.191 76.1265 136.93V154.351ZM115.057 129.677V113.911C116.639 113.875 118.218 113.743 119.785 113.517C123.351 113.265 126.818 112.237 129.944 110.503C133.07 108.769 135.78 106.373 137.882 103.481C139.984 100.589 141.429 97.2726 142.115 93.7634C142.8 90.2542 142.71 86.6375 141.851 83.1669C140.317 78.1384 137.284 73.6992 133.157 70.4443C129.03 67.1895 124.006 65.2748 118.761 64.9569C100.32 64.9569 81.8006 64.9569 63.5964 64.9569C61.4375 64.9297 59.2865 65.2219 57.2131 65.824C51.8018 67.1843 47.0458 70.4151 43.7865 74.9451C40.5271 79.475 38.9744 85.0122 39.403 90.577C39.4234 95.369 40.9591 100.032 43.7902 103.897C46.6213 107.763 50.6027 110.634 55.1642 112.098C58.68 113.109 62.3051 113.691 65.9606 113.832C73.2895 113.832 80.6185 113.832 87.9474 113.832C90.3989 113.808 92.7963 114.553 94.8036 115.961C101.423 120.454 107.728 124.711 115.057 129.677Z" fill="#062E47"/>
<path d="M317.43 80.723C324.759 76.9392 331.3 72.8399 338.314 70.1597C352.832 64.68 368.471 62.8396 383.864 64.7992C400.018 67.0639 415.29 73.5462 428.142 83.5934C440.995 93.6406 450.974 106.898 457.075 122.031C461.471 133.868 463.454 146.465 462.906 159.081C462.68 178.51 455.779 197.271 443.362 212.213C430.289 228.574 412.022 239.978 391.585 244.537C371.149 249.096 349.769 246.536 330.985 237.281C318.395 231.188 307.397 222.245 298.862 211.162C290.327 200.079 284.488 187.16 281.81 173.428C280.719 167.369 280.217 161.217 280.313 155.061C280.313 113.044 280.313 71.1057 280.313 28.9311C280.085 26.1202 280.49 23.2938 281.499 20.6606C282.509 18.0274 284.096 15.6544 286.144 13.7167C288.551 11.4981 291.505 9.96009 294.702 9.26065C297.899 8.5612 301.224 8.72549 304.337 9.73664C307.45 10.7478 310.237 12.5694 312.414 15.0144C314.59 17.4594 316.077 20.4397 316.721 23.6494C317.195 25.9046 317.433 28.2031 317.43 30.5077C317.43 45.5644 317.43 60.5423 317.43 75.5202V80.723ZM317.43 155.218C315.066 182.257 339.575 208.193 367.63 210.4C382.083 211.445 396.359 206.705 407.317 197.221C418.276 187.737 425.019 174.287 426.064 159.83C427.109 145.373 422.37 131.092 412.89 120.13C403.409 109.168 389.963 102.422 375.51 101.377C368.024 100.744 360.489 101.702 353.399 104.188C346.31 106.675 339.826 110.633 334.374 115.803C328.77 120.677 324.337 126.752 321.404 133.576C318.47 140.4 317.112 147.797 317.43 155.218Z" fill="#062E47"/>
<path d="M477.485 154.745C477.485 131.096 477.485 107.447 477.485 83.3245C477.274 80.6771 477.613 78.0145 478.481 75.5045C479.349 72.9946 480.727 70.6916 482.529 68.7408C484.768 66.2534 487.671 64.4572 490.896 63.5635C494.121 62.6697 497.533 62.7156 500.733 63.6956C504.146 64.4821 507.242 66.2794 509.618 68.8528C511.993 71.4263 513.539 74.6564 514.051 78.1217C514.421 80.0987 514.632 82.1022 514.682 84.1129V225.378C514.961 228.454 514.531 231.554 513.425 234.438C512.318 237.321 510.564 239.913 508.298 242.011C505.773 244.473 502.564 246.113 499.09 246.718C495.617 247.323 492.042 246.864 488.833 245.401C485.598 244.215 482.802 242.071 480.817 239.254C478.831 236.437 477.752 233.081 477.722 229.635C477.722 220.964 477.722 212.292 477.722 203.621C477.564 187.382 477.485 171.09 477.485 154.745Z" fill="#062E47"/>
<path d="M495.847 45.0915C490.956 45.0915 486.266 43.148 482.808 39.6886C479.349 36.2293 477.406 31.5373 477.406 26.645C477.406 21.7527 479.349 17.0608 482.808 13.6014C486.266 10.142 490.956 8.19856 495.847 8.19856C498.324 8.13121 500.789 8.57492 503.087 9.50206C505.385 10.4292 507.468 11.8199 509.206 13.5875C510.943 15.355 512.298 17.4616 513.186 19.7759C514.074 22.0902 514.476 24.5627 514.366 27.0392C514.357 29.4471 513.867 31.8289 512.927 34.0456C511.987 36.2623 510.615 38.2695 508.891 39.95C507.167 41.6305 505.126 42.9506 502.886 43.8334C500.647 44.7162 498.254 45.1439 495.847 45.0915Z" fill="#DC157C"/>
<path d="M255.331 260.142C253.913 259.275 252.809 258.96 252.494 258.329C252.303 257.34 252.303 256.323 252.494 255.334V1.81311C252.461 1.39336 252.461 0.971575 252.494 0.551817L255.331 0V260.142Z" fill="#062E47"/>
<path d="M134.758 185.647C131.842 185.647 130.424 184.149 130.345 180.917C130.291 180.304 130.362 179.686 130.553 179.101C130.743 178.515 131.05 177.975 131.455 177.511C131.86 177.047 132.354 176.67 132.908 176.402C133.462 176.134 134.065 175.98 134.679 175.951C136.013 175.9 137.317 176.349 138.337 177.209C139.357 178.069 140.02 179.279 140.196 180.602C140.353 183.519 138.147 185.489 134.758 185.647Z" fill="#DC157C"/>
<path d="M91.5725 185.095C88.1839 185.095 86.6865 183.755 86.6865 180.996C86.6761 180.337 86.7968 179.683 87.0416 179.071C87.2864 178.46 87.6505 177.903 88.1125 177.433C88.5746 176.964 89.1254 176.591 89.733 176.336C90.3405 176.082 90.9926 175.951 91.6513 175.951C92.3113 175.921 92.9697 176.037 93.5797 176.291C94.1896 176.545 94.7361 176.93 95.1801 177.42C95.6242 177.909 95.9548 178.49 96.1485 179.122C96.3422 179.754 96.3943 180.421 96.3009 181.075C96.1433 184.465 95.2764 185.174 91.5725 185.095Z" fill="#DC157C"/>
<path d="M112.929 185.174C109.777 185.174 108.122 183.598 108.279 180.838C108.398 179.596 108.941 178.432 109.816 177.542C110.691 176.652 111.846 176.09 113.087 175.951C113.712 175.958 114.329 176.096 114.897 176.356C115.466 176.616 115.975 176.991 116.39 177.459C116.805 177.926 117.119 178.475 117.31 179.071C117.501 179.666 117.566 180.295 117.5 180.917C117.5 184.307 116.633 185.174 112.929 185.174Z" fill="#DC157C"/>
<path d="M69.1128 84.8223C72.3439 84.8223 74.1564 86.7142 73.92 89.631C73.7173 90.85 73.0938 91.9594 72.1578 92.766C71.2219 93.5726 70.0328 94.0254 68.7976 94.0455C68.1813 94.0809 67.5646 93.9842 66.9887 93.7619C66.4128 93.5396 65.891 93.1968 65.4583 92.7564C65.0255 92.3161 64.6918 91.7883 64.4794 91.2085C64.2671 90.6287 64.1809 90.0102 64.2268 89.3945C64.3057 86.0836 65.6454 84.8223 69.1128 84.8223Z" fill="#DC157C"/>
<path d="M112.377 94.1242C111.718 94.1641 111.059 94.0583 110.446 93.8143C109.832 93.5702 109.28 93.194 108.829 92.7123C108.377 92.2306 108.038 91.6553 107.834 91.0273C107.63 90.3994 107.567 89.7342 107.649 89.079C107.649 86.2411 109.461 84.8222 112.614 84.901C113.269 84.8486 113.927 84.9432 114.541 85.1778C115.154 85.4124 115.708 85.7811 116.161 86.257C116.614 86.7329 116.955 87.304 117.16 87.9286C117.364 88.5532 117.426 89.2156 117.342 89.8673C117.325 90.4832 117.179 91.0887 116.914 91.6448C116.649 92.2009 116.27 92.6953 115.803 93.0963C115.335 93.4973 114.789 93.7959 114.199 93.9729C113.609 94.1499 112.988 94.2015 112.377 94.1242Z" fill="#DC157C"/>
<path d="M90.6269 94.1244C87.6322 94.1244 86.1349 92.2324 86.2925 88.8427C86.4501 85.453 87.6322 84.7435 91.1785 84.9012C94.7248 85.0588 95.434 86.3201 95.2764 89.7099C95.3456 90.3273 95.2708 90.9524 95.0579 91.5361C94.845 92.1197 94.4997 92.6461 94.0492 93.0738C93.5987 93.5016 93.0552 93.819 92.4614 94.0013C91.8676 94.1836 91.2397 94.2257 90.6269 94.1244Z" fill="#DC157C"/>
</svg>
