<svg width="886" height="321" viewBox="0 0 886 321" fill="none" xmlns="http://www.w3.org/2000/svg">
<path d="M202.123 132.042H20.8114V226.639H202.123V132.042Z" fill="#DC157C"/>
<path d="M146.941 53.2109H28.6945V132.042H146.941V53.2109Z" fill="#DC157C"/>
<path d="M146.941 53.2109H28.6945V132.042H146.941V53.2109Z" fill="#DC157C"/>
<path d="M885.667 236.966C883.084 241.142 879.146 244.304 874.512 245.926C869.877 247.547 864.827 247.529 860.204 245.874C857.378 245.45 854.774 244.095 852.804 242.025C850.833 239.955 849.61 237.287 849.326 234.443C849.065 232.85 848.723 231.272 848.301 229.714L844.911 231.763C832.845 239.753 819.024 244.703 804.628 246.189C787.194 248.434 769.487 245.414 753.782 237.518C741.239 231.573 730.262 222.772 721.734 211.821C713.205 200.869 707.361 188.071 704.671 174.453C702.021 163.098 701.667 151.329 703.63 139.835C705.593 128.342 709.833 117.357 716.101 107.525C723.48 95.5302 733.521 85.3944 745.446 77.9031C757.372 70.4117 770.861 65.7659 784.871 64.3253C798.88 62.8848 813.033 64.6882 826.233 69.5959C839.433 74.5036 851.327 82.3838 860.993 92.6264C872.99 104.987 881.197 120.525 884.642 137.402C884.642 139.216 885.43 141.029 885.903 142.842L885.667 236.966ZM748.343 185.411C746.215 191.402 744.244 197.078 742.194 202.596C741.564 204.251 740.775 205.985 742.194 207.089C743.455 207.748 744.916 207.917 746.293 207.562C749.908 206.663 753.422 205.395 756.778 203.778C758.851 202.581 761.203 201.951 763.597 201.951C765.991 201.951 768.343 202.581 770.416 203.778C780.832 209.624 793.004 211.527 804.707 209.139C832.456 203.226 857.13 180.05 849.562 142.763C848.03 135.33 844.981 128.294 840.606 122.093C836.232 115.892 830.625 110.66 824.136 106.724C817.648 102.788 810.418 100.232 802.897 99.2174C795.376 98.2025 787.727 98.7497 780.427 100.825C771.393 103.169 763.198 108.003 756.778 114.778C750.062 121.244 745.094 129.305 742.337 138.21C739.58 147.115 739.124 156.574 741.012 165.703C742.188 172.676 744.676 179.363 748.343 185.411Z" fill="white"/>
<path d="M580.118 321C579.525 320.528 578.859 320.155 578.147 319.896C575.446 319.168 572.94 317.852 570.807 316.043C568.674 314.234 566.966 311.976 565.807 309.431C564.647 306.885 564.064 304.116 564.098 301.319C564.133 298.522 564.785 295.767 566.007 293.251C566.585 291.885 567.216 290.545 567.899 289.231C577.437 270.469 586.976 251.707 596.751 233.103C597.586 231.724 598.027 230.143 598.027 228.531C598.027 226.919 597.586 225.338 596.751 223.959C574.678 180.129 552.632 136.22 530.612 92.2323C528.541 88.4572 527.688 84.1346 528.168 79.8558C528.479 76.1102 529.977 72.5614 532.444 69.7258C534.911 66.8902 538.218 64.9157 541.885 64.0896C545.845 63.296 549.956 63.8129 553.597 65.5621C557.238 67.3114 560.21 70.198 562.065 73.7858L615.276 180.287C616.459 182.651 617.72 184.938 619.297 187.776C620.4 185.647 621.346 184.149 622.056 182.573C639.872 146.994 657.661 111.415 675.424 75.8354C676.599 73.4624 678.055 71.2391 679.76 69.2136C682.267 66.6263 685.485 64.8409 689.008 64.0831C692.53 63.3254 696.197 63.6294 699.547 64.9568C702.946 66.1892 705.883 68.4401 707.957 71.4026C710.031 74.3651 711.141 77.8951 711.135 81.5113C711.036 85.4937 709.894 89.3806 707.824 92.7841C692.058 124.317 676.292 155.849 660.525 187.381C641.028 226.482 621.53 265.582 602.033 304.682C600.545 307.631 598.776 310.429 596.751 313.038C595.345 314.999 593.532 316.633 591.437 317.83C589.343 319.027 587.014 319.759 584.611 319.975C584.059 319.975 583.586 320.527 583.113 320.921L580.118 321Z" fill="white"/>
<path d="M180.287 116.197C190.567 119.237 199.993 124.642 207.81 131.979C215.626 139.317 221.616 148.382 225.299 158.45C229.463 168.885 230.738 180.249 228.99 191.346C227.242 202.444 222.536 212.866 215.366 221.515C210.371 228.384 204.039 234.173 196.751 238.535C189.463 242.897 181.37 245.742 172.955 246.899C169.332 247.487 165.669 247.804 161.998 247.845H38.8637C33.6318 247.994 28.4258 247.057 23.5747 245.092C18.7236 243.126 14.333 240.176 10.6805 236.427C7.02792 232.678 4.19284 228.212 2.35445 223.312C0.516062 218.411 -0.285649 213.183 -1.63168e-06 207.956C-1.63168e-06 159.318 -1.63168e-06 110.758 -1.63168e-06 62.1188C-0.310666 55.7721 0.968718 49.4483 3.72201 43.7215C6.4753 37.9946 10.6153 33.0461 15.7662 29.3251C21.4934 25.222 28.35 22.9915 35.3951 22.9398C64.7203 22.9398 94.1242 22.9398 123.449 22.9398C137.62 23.2479 151.156 28.8761 161.367 38.706C171.582 47.3497 178.923 58.8979 182.415 71.8151C183.384 76.1695 183.965 80.6015 184.149 85.0587C185.184 94.1448 184.215 103.347 181.311 112.019C180.862 113.383 180.519 114.78 180.287 116.197ZM76.1508 154.351C71.0268 154.351 66.2181 154.351 61.4094 154.351C56.8026 154.138 52.2169 155.096 48.081 157.137C43.9452 159.177 40.3942 162.233 37.7601 166.018C34.4402 170.132 32.5009 175.187 32.2179 180.465C31.9349 185.744 33.3224 190.977 36.1834 195.422C38.754 199.652 42.3976 203.128 46.7449 205.495C51.0921 207.863 55.9882 209.038 60.9364 208.902H162.55C164.363 208.902 166.255 208.902 168.068 208.902C172.657 208.707 177.119 207.336 181.025 204.92C184.932 202.504 188.152 199.125 190.377 195.107C192.59 190.848 193.727 186.111 193.688 181.311C193.747 175.472 191.81 169.788 188.197 165.2C184.584 160.613 179.513 157.397 173.822 156.085C164.901 155.032 155.924 154.532 146.941 154.588C134.092 154.588 121.242 154.588 108.393 154.588C103.862 154.727 99.4353 153.214 95.9374 150.331C91.2863 146.626 86.2411 143.315 81.3536 139.846C79.9347 138.9 78.358 138.191 76.1508 136.93V154.351ZM115.093 129.677V113.911C116.676 113.875 118.256 113.743 119.823 113.517C123.39 113.265 126.858 112.237 129.986 110.503C133.113 108.769 135.823 106.373 137.926 103.481C140.029 100.589 141.474 97.2725 142.16 93.7633C142.846 90.2541 142.755 86.6374 141.896 83.1667C140.362 78.1383 137.328 73.699 133.199 70.4442C129.071 67.1894 124.046 65.2747 118.798 64.9568C100.352 64.9568 81.8266 64.9568 63.6166 64.9568C61.4571 64.9296 59.3054 65.2218 57.2313 65.8239C51.8183 67.1841 47.0608 70.415 43.8004 74.945C40.54 79.4749 38.9868 85.012 39.4155 90.5769C39.4359 95.3689 40.9721 100.032 43.8042 103.897C46.6362 107.763 50.6188 110.634 55.1817 112.098C58.6986 113.109 62.3249 113.691 65.9816 113.832C73.3129 113.832 80.6441 113.832 87.9754 113.832C90.4277 113.808 92.8259 114.552 94.8337 115.96C101.456 120.454 107.762 124.711 115.093 129.677Z" fill="white"/>
<path d="M317.531 80.723C324.863 76.9392 331.406 72.8399 338.422 70.1597C352.944 64.68 368.588 62.8396 383.986 64.7992C400.145 67.0639 415.422 73.5462 428.278 83.5934C441.135 93.6406 451.117 106.898 457.22 122.031C461.618 133.868 463.601 146.465 463.053 159.081C462.827 178.51 455.924 197.271 443.503 212.213C430.426 228.574 412.153 239.978 391.71 244.537C371.267 249.096 349.88 246.536 331.09 237.281C318.497 231.188 307.495 222.245 298.957 211.162C290.419 200.079 284.579 187.16 281.9 173.428C280.808 167.369 280.306 161.217 280.402 155.061C280.402 113.044 280.402 71.1057 280.402 28.9311C280.174 26.1202 280.579 23.2938 281.589 20.6606C282.599 18.0274 284.186 15.6544 286.235 13.7167C288.643 11.4981 291.597 9.96009 294.795 9.26065C297.994 8.5612 301.32 8.72549 304.434 9.73664C307.548 10.7478 310.336 12.5694 312.513 15.0144C314.69 17.4594 316.177 20.4397 316.822 23.6494C317.296 25.9046 317.534 28.2031 317.531 30.5077C317.531 45.5644 317.531 60.5423 317.531 75.5202V80.723ZM317.531 155.218C315.166 182.257 339.683 208.193 367.747 210.4C382.204 211.445 396.485 206.705 407.447 197.221C418.409 187.737 425.155 174.287 426.2 159.83C427.245 145.373 422.505 131.092 413.021 120.13C403.537 109.168 390.087 102.422 375.63 101.377C368.141 100.744 360.604 101.702 353.512 104.188C346.42 106.675 339.934 110.633 334.48 115.803C328.875 120.677 324.44 126.752 321.506 133.576C318.572 140.4 317.213 147.797 317.531 155.218Z" fill="white"/>
<path d="M477.637 154.745C477.637 131.096 477.637 107.447 477.637 83.3244C477.426 80.6769 477.765 78.0144 478.633 75.5044C479.501 72.9945 480.88 70.6915 482.682 68.7407C484.922 66.2533 487.826 64.4571 491.052 63.5634C494.278 62.6696 497.692 62.7155 500.892 63.6955C504.306 64.482 507.403 66.2792 509.78 68.8527C512.156 71.4262 513.702 74.6563 514.215 78.1216C514.585 80.0986 514.795 82.102 514.845 84.1127V225.378C515.125 228.454 514.695 231.554 513.588 234.437C512.481 237.321 510.727 239.912 508.46 242.011C505.934 244.473 502.723 246.113 499.249 246.718C495.774 247.323 492.198 246.864 488.989 245.401C485.753 244.215 482.955 242.07 480.969 239.254C478.984 236.437 477.904 233.081 477.874 229.635C477.874 220.963 477.874 212.292 477.874 203.621C477.716 187.381 477.637 171.09 477.637 154.745Z" fill="white"/>
<path d="M496.005 45.0914C491.112 45.0914 486.421 43.1479 482.961 39.6885C479.502 36.2291 477.558 31.5372 477.558 26.6449C477.558 21.7526 479.502 17.0607 482.961 13.6013C486.421 10.1419 491.112 8.19844 496.005 8.19844C498.483 8.13108 500.948 8.5748 503.247 9.50194C505.546 10.4291 507.629 11.8198 509.367 13.5873C511.105 15.3549 512.461 17.4615 513.349 19.7758C514.237 22.0901 514.639 24.5626 514.53 27.0391C514.52 29.447 514.031 31.8288 513.09 34.0455C512.15 36.2622 510.777 38.2694 509.053 39.9499C507.328 41.6304 505.286 42.9505 503.046 43.8333C500.806 44.716 498.412 45.1437 496.005 45.0914Z" fill="#DC157C"/>
<path d="M255.413 260.142C253.994 259.275 252.89 258.96 252.575 258.329C252.383 257.34 252.383 256.323 252.575 255.334V1.81311C252.541 1.39336 252.541 0.971575 252.575 0.551817L255.413 0V260.142Z" fill="white"/>
<path d="M134.801 185.647C131.884 185.647 130.465 184.149 130.387 180.917C130.333 180.304 130.403 179.686 130.594 179.101C130.785 178.515 131.092 177.975 131.497 177.511C131.902 177.047 132.396 176.67 132.95 176.402C133.505 176.134 134.107 175.98 134.722 175.951C136.056 175.9 137.361 176.349 138.381 177.209C139.402 178.069 140.065 179.279 140.24 180.602C140.398 183.519 138.191 185.489 134.801 185.647Z" fill="white"/>
<path d="M91.6017 185.095C88.2119 185.095 86.7141 183.755 86.7141 180.996C86.7037 180.337 86.8244 179.683 87.0693 179.071C87.3142 178.46 87.6784 177.903 88.1406 177.433C88.6028 176.964 89.1538 176.591 89.7616 176.336C90.3693 176.082 91.0216 175.951 91.6805 175.951C92.3407 175.921 92.9993 176.037 93.6095 176.291C94.2196 176.545 94.7662 176.93 95.2104 177.42C95.6546 177.909 95.9853 178.49 96.1791 179.122C96.3729 179.754 96.4249 180.421 96.3315 181.075C96.1739 184.465 95.3067 185.174 91.6017 185.095Z" fill="white"/>
<path d="M112.965 185.174C109.812 185.174 108.156 183.598 108.314 180.838C108.433 179.596 108.975 178.432 109.851 177.542C110.727 176.652 111.882 176.09 113.122 175.951C113.748 175.958 114.365 176.096 114.934 176.356C115.503 176.616 116.011 176.991 116.427 177.459C116.843 177.926 117.156 178.475 117.347 179.071C117.538 179.666 117.603 180.295 117.537 180.917C117.537 184.307 116.67 185.174 112.965 185.174Z" fill="white"/>
<path d="M69.1348 84.8223C72.3668 84.8223 74.18 86.7142 73.9435 89.631C73.7407 90.85 73.117 91.9594 72.1807 92.766C71.2445 93.5726 70.0551 94.0254 68.8194 94.0455C68.203 94.0809 67.586 93.9842 67.01 93.7619C66.4339 93.5396 65.9119 93.1968 65.479 92.7564C65.0462 92.3161 64.7123 91.7883 64.4999 91.2085C64.2875 90.6287 64.2013 90.0102 64.2472 89.3945C64.3261 86.0836 65.6662 84.8223 69.1348 84.8223Z" fill="white"/>
<path d="M112.413 94.1242C111.754 94.1641 111.094 94.0583 110.481 93.8143C109.867 93.5702 109.315 93.194 108.863 92.7123C108.412 92.2306 108.072 91.6553 107.868 91.0273C107.664 90.3994 107.601 89.7342 107.683 89.079C107.683 86.2411 109.496 84.8222 112.65 84.901C113.305 84.8486 113.963 84.9432 114.577 85.1778C115.191 85.4124 115.745 85.7811 116.198 86.257C116.651 86.7329 116.993 87.304 117.197 87.9286C117.401 88.5532 117.464 89.2156 117.379 89.8673C117.362 90.4832 117.216 91.0887 116.951 91.6448C116.686 92.2009 116.307 92.6953 115.84 93.0963C115.372 93.4973 114.825 93.7959 114.235 93.9729C113.645 94.1499 113.024 94.2015 112.413 94.1242Z" fill="white"/>
<path d="M90.6557 94.1243C87.6601 94.1243 86.1623 92.2323 86.32 88.8426C86.4777 85.4529 87.6601 84.7434 91.2075 84.901C94.7549 85.0587 95.4644 86.32 95.3067 89.7097C95.376 90.3272 95.3011 90.9523 95.0882 91.536C94.8752 92.1196 94.5298 92.646 94.0791 93.0737C93.6285 93.5015 93.0848 93.8189 92.4908 94.0012C91.8969 94.1835 91.2687 94.2256 90.6557 94.1243Z" fill="white"/>
</svg>
