<svg width="212" height="33" viewBox="0 0 212 33" fill="none" xmlns="http://www.w3.org/2000/svg">
<path d="M7.37109 7.30469C6.87109 7.30469 6.36328 7.35156 5.84766 7.44531C5.34766 7.53906 4.84766 7.64844 4.34766 7.77344C3.84766 7.88281 3.34766 7.98438 2.84766 8.07812C2.34766 8.17188 1.83984 8.21875 1.32422 8.21875C1.16797 8.21875 1.00391 8.20312 0.832031 8.17188C0.675781 8.125 0.597656 7.98438 0.597656 7.75C0.597656 7.59375 0.660156 7.4375 0.785156 7.28125C0.925781 7.10938 1.07422 7.01562 1.23047 7L7.51172 6.08594C7.52734 6.02344 7.55078 5.92969 7.58203 5.80469C7.61328 5.66406 7.65234 5.53125 7.69922 5.40625C7.76172 5.26562 7.83984 5.14844 7.93359 5.05469C8.02734 4.94531 8.13672 4.89062 8.26172 4.89062C8.44922 4.89062 8.59766 4.9375 8.70703 5.03125C8.81641 5.125 8.91016 5.23438 8.98828 5.35938C9.06641 5.46875 9.13672 5.57031 9.19922 5.66406C9.26172 5.75781 9.33984 5.80469 9.43359 5.80469H9.62109C9.77734 5.78906 10.0273 5.76562 10.3711 5.73438C10.7148 5.6875 11.1055 5.64062 11.543 5.59375C11.9961 5.54688 12.4727 5.5 12.9727 5.45312C13.4727 5.39062 13.9492 5.34375 14.4023 5.3125C14.8555 5.26562 15.2539 5.22656 15.5977 5.19531C15.9414 5.14844 16.1914 5.10938 16.3477 5.07812C16.3945 5.07812 16.5039 5.07812 16.6758 5.07812C16.8633 5.0625 16.9961 5.05469 17.0742 5.05469C17.0742 5.35156 16.9102 5.60156 16.582 5.80469C16.2695 5.99219 15.8633 6.15625 15.3633 6.29688C14.8789 6.42188 14.332 6.52344 13.7227 6.60156C13.1289 6.66406 12.543 6.71875 11.9648 6.76562C11.4023 6.8125 10.8789 6.85156 10.3945 6.88281C9.92578 6.91406 9.56641 6.95312 9.31641 7C9.25391 8.10938 9.27734 9.26562 9.38672 10.4688C9.51172 11.6719 9.66016 12.8828 9.83203 14.1016C10.0195 15.3203 10.1914 16.5312 10.3477 17.7344C10.5039 18.9375 10.582 20.0859 10.582 21.1797C10.6445 21.3984 10.668 21.5703 10.6523 21.6953C10.6523 21.8203 10.6133 21.9062 10.5352 21.9531C10.457 22 10.3398 22.0234 10.1836 22.0234C10.0273 22.0234 9.83984 22.0156 9.62109 22C9.46484 21.4375 9.32422 20.7812 9.19922 20.0312C9.08984 19.2656 8.98828 18.4531 8.89453 17.5938C8.80078 16.7188 8.70703 15.8203 8.61328 14.8984C8.53516 13.9766 8.45703 13.0625 8.37891 12.1562C8.30078 11.25 8.21484 10.3828 8.12109 9.55469C8.02734 8.72656 7.91797 7.97656 7.79297 7.30469H7.37109ZM15.2227 10.7031V10.5156C15.2227 10.3594 15.2773 10.25 15.3867 10.1875C15.5117 10.125 15.6523 10.0938 15.8086 10.0938C15.9336 10.0938 16.0508 10.1094 16.1602 10.1406C16.2695 10.1562 16.3555 10.2422 16.418 10.3984C16.4648 10.6328 16.5117 10.9609 16.5586 11.3828C16.6055 11.7891 16.6602 12.2422 16.7227 12.7422C16.7852 13.2422 16.8477 13.7734 16.9102 14.3359C16.9883 14.8828 17.0586 15.4062 17.1211 15.9062C17.1992 16.3906 17.2773 16.8281 17.3555 17.2188C17.4336 17.6094 17.5195 17.9062 17.6133 18.1094C17.5664 16.6094 17.6133 15.3125 17.7539 14.2188C17.8945 13.1094 18.1602 12.2109 18.5508 11.5234C18.957 10.8203 19.5039 10.3359 20.1914 10.0703C20.8945 9.78906 21.7695 9.72656 22.8164 9.88281C23.3008 9.88281 23.543 10.1406 23.543 10.6562C23.543 10.8594 23.4102 11 23.1445 11.0781C22.8789 11.1406 22.582 11.1875 22.2539 11.2188C21.9258 11.2344 21.6055 11.2578 21.293 11.2891C20.9805 11.3203 20.7539 11.3984 20.6133 11.5234C20.0508 11.8359 19.6523 12.3203 19.418 12.9766C19.1992 13.6328 19.043 14.4062 18.9492 15.2969C18.8555 16.1875 18.7852 17.1641 18.7383 18.2266C18.707 19.2734 18.6055 20.3516 18.4336 21.4609C18.4336 21.6172 18.3711 21.7344 18.2461 21.8125C18.1211 21.8906 17.9648 21.9297 17.7773 21.9297C17.6055 21.9297 17.4336 21.8906 17.2617 21.8125C17.1055 21.7344 16.9805 21.6172 16.8867 21.4609L15.2227 10.7031ZM31.3945 21.3906C31.3164 20.9844 31.2461 20.5 31.1836 19.9375C31.1367 19.3594 31.082 18.7812 31.0195 18.2031C30.957 17.6094 30.8789 17.0547 30.7852 16.5391C30.707 16.0234 30.582 15.6016 30.4102 15.2734C29.6133 16.8984 28.9102 18.1797 28.3008 19.1172C27.6914 20.0391 27.1523 20.7031 26.6836 21.1094C26.2305 21.5 25.8477 21.6875 25.5352 21.6719C25.2227 21.6562 24.9648 21.5156 24.7617 21.25C24.5586 20.9844 24.4102 20.6484 24.3164 20.2422C24.2383 19.8203 24.1836 19.4297 24.1523 19.0703C24.1523 18.7266 24.2305 18.2422 24.3867 17.6172C24.543 16.9922 24.7539 16.3125 25.0195 15.5781C25.2852 14.8281 25.5977 14.0703 25.957 13.3047C26.332 12.5391 26.7305 11.8438 27.1523 11.2188C27.5742 10.5938 28.0117 10.0781 28.4648 9.67188C28.918 9.26562 29.3711 9.0625 29.8242 9.0625C30.4961 8.95312 30.9883 9.10156 31.3008 9.50781C31.6289 9.89844 31.6914 10.5625 31.4883 11.5C31.4883 12.5312 31.5273 13.4141 31.6055 14.1484C31.6992 14.8828 31.793 15.5859 31.8867 16.2578C31.9961 16.9297 32.0898 17.6328 32.168 18.3672C32.2617 19.1016 32.3086 19.9844 32.3086 21.0156C32.3086 21.2031 32.2852 21.3672 32.2383 21.5078C32.207 21.6328 32.0195 21.6953 31.6758 21.6953C31.6289 21.6953 31.5664 21.6562 31.4883 21.5781C31.4258 21.5 31.3945 21.4375 31.3945 21.3906ZM30.1289 10.9141C29.957 10.6641 29.7227 10.6406 29.4258 10.8438C29.1289 11.0469 28.8164 11.3828 28.4883 11.8516C28.1602 12.3203 27.8242 12.8828 27.4805 13.5391C27.1367 14.1953 26.8164 14.8594 26.5195 15.5312C26.2227 16.2031 25.9648 16.8438 25.7461 17.4531C25.5273 18.0469 25.3789 18.5391 25.3008 18.9297C25.3008 19.4922 25.3867 19.8125 25.5586 19.8906C25.7305 19.9531 25.9414 19.8594 26.1914 19.6094C26.4414 19.3594 26.7227 19 27.0352 18.5312C27.3633 18.0625 27.6758 17.5625 27.9727 17.0312C28.2852 16.5 28.5742 15.9844 28.8398 15.4844C29.1211 14.9844 29.3398 14.5781 29.4961 14.2656C29.6367 13.9375 29.7461 13.6328 29.8242 13.3516C29.9023 13.0703 29.9648 12.8047 30.0117 12.5547C30.0742 12.2891 30.1055 12.0234 30.1055 11.7578C30.1211 11.4922 30.1289 11.2109 30.1289 10.9141ZM33.5273 16.6094C33.5742 16.0469 33.6211 15.4375 33.668 14.7812C33.7148 14.1094 33.7852 13.4453 33.8789 12.7891C33.9883 12.1328 34.1211 11.5078 34.2773 10.9141C34.4492 10.3203 34.668 9.79688 34.9336 9.34375C35.2148 8.875 35.5586 8.50781 35.9648 8.24219C36.3711 7.96094 36.8633 7.82812 37.4414 7.84375C37.832 7.84375 38.1289 8.00781 38.332 8.33594C38.5508 8.66406 38.6992 9.0625 38.7773 9.53125C38.8711 10 38.918 10.4844 38.918 10.9844C38.9336 11.4688 38.9414 11.8672 38.9414 12.1797C38.6289 12.1797 38.3711 12.0469 38.168 11.7812C37.9648 11.5 37.8086 11.1797 37.6992 10.8203C37.5898 10.4609 37.5117 10.1094 37.4648 9.76562L37.3945 9.08594C37.3789 9.08594 37.3477 9.08594 37.3008 9.08594C37.2695 9.07031 37.2461 9.0625 37.2305 9.0625C36.9648 9.0625 36.7148 9.21094 36.4805 9.50781C36.2617 9.80469 36.0508 10.1875 35.8477 10.6562C35.6602 11.1094 35.4961 11.625 35.3555 12.2031C35.2148 12.7656 35.0977 13.3203 35.0039 13.8672C34.9102 14.4141 34.832 14.9219 34.7695 15.3906C34.7227 15.8438 34.6992 16.1953 34.6992 16.4453C34.668 16.8516 34.668 17.2969 34.6992 17.7812C34.7305 18.2656 34.8242 18.7188 34.9805 19.1406C35.1367 19.5625 35.3555 19.9297 35.6367 20.2422C35.918 20.5391 36.293 20.7422 36.7617 20.8516C37.3398 20.8516 37.8086 20.7734 38.168 20.6172C38.5273 20.4609 38.8164 20.25 39.0352 19.9844C39.2695 19.7188 39.4492 19.4219 39.5742 19.0938C39.6992 18.7656 39.8164 18.4297 39.9258 18.0859C40.0508 17.7266 40.1758 17.375 40.3008 17.0312C40.4258 16.6875 40.6055 16.3672 40.8398 16.0703C41.0273 16.0234 41.1602 16.0312 41.2383 16.0938C41.332 16.1406 41.3945 16.2109 41.4258 16.3047C41.457 16.3984 41.4727 16.5078 41.4727 16.6328V16.8906C41.4727 17.5469 41.3633 18.1797 41.1445 18.7891C40.9258 19.3984 40.6055 19.9453 40.1836 20.4297C39.7617 20.8984 39.2539 21.2812 38.6602 21.5781C38.082 21.8594 37.418 22 36.668 22C36.043 22 35.5195 21.8047 35.0977 21.4141C34.6914 21.0078 34.3711 20.5234 34.1367 19.9609C33.918 19.3984 33.7617 18.8125 33.668 18.2031C33.5742 17.5781 33.5273 17.0469 33.5273 16.6094ZM43.582 4C43.9102 3.6875 44.168 3.5625 44.3555 3.625C44.5586 3.6875 44.707 3.89844 44.8008 4.25781C44.8945 4.61719 44.9492 5.08594 44.9648 5.66406C44.9805 6.24219 44.9727 6.89844 44.9414 7.63281C44.9258 8.35156 44.8867 9.11719 44.8242 9.92969C44.7617 10.7266 44.707 11.5156 44.6602 12.2969C44.6133 13.0625 44.582 13.7969 44.5664 14.5C44.5508 15.2031 44.5742 15.8125 44.6367 16.3281H44.707C44.7383 16.3281 44.7617 16.3203 44.7773 16.3047C45.5898 15.4922 46.3164 14.6328 46.957 13.7266C47.5977 12.8203 48.1758 11.9688 48.6914 11.1719C49.207 10.3594 49.6602 9.65625 50.0508 9.0625C50.457 8.46875 50.832 8.0625 51.1758 7.84375C51.4102 7.84375 51.6055 7.88281 51.7617 7.96094C51.9336 8.03906 52.0195 8.21875 52.0195 8.5C52.0195 8.53125 52.0117 8.58594 51.9961 8.66406C51.9961 8.72656 51.9961 8.77344 51.9961 8.80469C51.6055 9.60156 51.1758 10.4062 50.707 11.2188C50.2383 12.0156 49.7305 12.7891 49.1836 13.5391C48.6367 14.2891 48.043 15 47.4023 15.6719C46.7773 16.3438 46.0977 16.9531 45.3633 17.5C45.3633 17.5156 45.3555 17.5469 45.3398 17.5938C45.3398 17.625 45.3398 17.6484 45.3398 17.6641C45.3398 17.8203 45.4648 17.9922 45.7148 18.1797C45.9805 18.3672 46.3086 18.5469 46.6992 18.7188C47.1055 18.8906 47.5508 19.0625 48.0352 19.2344C48.5352 19.4062 49.0195 19.5547 49.4883 19.6797C49.9727 19.8047 50.418 19.9062 50.8242 19.9844C51.2461 20.0625 51.5742 20.1016 51.8086 20.1016C51.8086 20.1641 51.8086 20.2812 51.8086 20.4531C51.8242 20.625 51.8164 20.8047 51.7852 20.9922C51.7539 21.1797 51.6992 21.3516 51.6211 21.5078C51.543 21.6484 51.418 21.7188 51.2461 21.7188H51.1523C51.1211 21.7188 51.0977 21.7109 51.082 21.6953L44.3789 19C44.3633 19.9219 44.3008 20.6719 44.1914 21.25C44.082 21.8125 43.9492 22.2266 43.793 22.4922C43.6523 22.7734 43.4961 22.9062 43.3242 22.8906C43.168 22.875 43.0273 22.75 42.9023 22.5156L43.582 4ZM64.3242 2.96875C64.3398 2.96875 64.3945 2.97656 64.4883 2.99219C64.582 3.00781 64.6836 3.02344 64.793 3.03906C64.9023 3.03906 65.0039 3.04688 65.0977 3.0625C65.207 3.07812 65.2695 3.08594 65.2852 3.08594C65.3633 3.08594 65.4805 3.10156 65.6367 3.13281C65.793 3.14844 65.8711 3.23438 65.8711 3.39062V5.45312C66.1367 5.39062 66.4414 5.25 66.7852 5.03125C67.1289 4.79688 67.5352 4.5625 68.0039 4.32812C68.4727 4.09375 68.9961 3.89844 69.5742 3.74219C70.1523 3.58594 70.8164 3.54688 71.5664 3.625C72.7227 3.85938 73.5586 4.14062 74.0742 4.46875C74.5898 4.78125 74.8633 5.13281 74.8945 5.52344C74.9258 5.89844 74.7617 6.30469 74.4023 6.74219C74.0586 7.17969 73.5977 7.63281 73.0195 8.10156C72.4414 8.55469 71.793 9.00781 71.0742 9.46094C70.3711 9.91406 69.6758 10.3594 68.9883 10.7969C68.3164 11.2188 67.6992 11.6172 67.1367 11.9922C66.5742 12.3672 66.1523 12.7031 65.8711 13C66.1211 13.1094 66.4805 13.2891 66.9492 13.5391C67.4336 13.7734 67.957 14.0391 68.5195 14.3359C69.0977 14.6172 69.6914 14.9219 70.3008 15.25C70.9258 15.5781 71.5117 15.8828 72.0586 16.1641C72.6055 16.4297 73.0977 16.6719 73.5352 16.8906C73.9727 17.0938 74.2852 17.2266 74.4727 17.2891C74.6289 17.3672 74.7773 17.4375 74.918 17.5C75.0273 17.5781 75.1289 17.6484 75.2227 17.7109C75.332 17.7734 75.3867 17.8359 75.3867 17.8984C75.3867 17.9609 75.3633 18.0469 75.3164 18.1562C75.2852 18.2656 75.2305 18.3672 75.1523 18.4609C75.0742 18.5547 74.9883 18.6406 74.8945 18.7188C74.8164 18.7812 74.7383 18.8125 74.6602 18.8125C74.6289 18.8125 74.5898 18.8125 74.543 18.8125C74.5117 18.7969 74.4883 18.7891 74.4727 18.7891C74.4414 18.7734 74.332 18.7266 74.1445 18.6484C73.9727 18.5547 73.7852 18.4531 73.582 18.3438C73.3945 18.2344 73.207 18.1406 73.0195 18.0625C72.8477 17.9688 72.7383 17.9141 72.6914 17.8984C72.5195 17.8359 72.2383 17.7188 71.8477 17.5469C71.4727 17.3594 71.043 17.1562 70.5586 16.9375C70.0898 16.7031 69.5898 16.4531 69.0586 16.1875C68.5273 15.9219 68.0195 15.6719 67.5352 15.4375C67.0664 15.2031 66.6367 15 66.2461 14.8281C65.8711 14.6562 65.5977 14.5547 65.4258 14.5234V21.6953H64.3711L64.3242 2.96875ZM65.8711 7C65.8398 7.28125 65.8086 7.60938 65.7773 7.98438C65.7461 8.35938 65.707 8.75 65.6602 9.15625C65.6289 9.5625 65.5977 9.96875 65.5664 10.375C65.5508 10.7812 65.543 11.1562 65.543 11.5C65.6055 11.4219 65.8242 11.2891 66.1992 11.1016C66.5742 10.9141 67.0273 10.6797 67.5586 10.3984C68.0898 10.1172 68.6602 9.80469 69.2695 9.46094C69.8945 9.11719 70.4805 8.76562 71.0273 8.40625C71.5742 8.03125 72.0508 7.66406 72.457 7.30469C72.8789 6.94531 73.1445 6.61719 73.2539 6.32031C73.3789 6.00781 73.3164 5.72656 73.0664 5.47656C72.832 5.22656 72.332 5.03125 71.5664 4.89062C71.1445 4.85938 70.6602 4.88281 70.1133 4.96094C69.582 5.03906 69.043 5.17188 68.4961 5.35938C67.9648 5.54688 67.4648 5.78125 66.9961 6.0625C66.5273 6.32812 66.1523 6.64062 65.8711 7ZM76.7695 16.9375C76.6914 16.9531 76.5742 16.9766 76.418 17.0078C76.2617 17.0391 76.0977 17.0469 75.9258 17.0312C75.7539 17.0156 75.6055 16.9688 75.4805 16.8906C75.3398 16.8125 75.2695 16.6797 75.2695 16.4922C75.2695 16.3828 75.293 16.3047 75.3398 16.2578C75.3867 16.2109 75.4648 16.1406 75.5742 16.0469C75.918 15.7656 76.207 15.4062 76.4414 14.9688C76.6914 14.5156 76.918 14.0391 77.1211 13.5391C77.3242 13.0234 77.5352 12.5156 77.7539 12.0156C77.9883 11.5 78.2539 11.0391 78.5508 10.6328C78.8477 10.2266 79.2148 9.89844 79.6523 9.64844C80.0898 9.39844 80.6289 9.28125 81.2695 9.29688C81.5352 9.29688 81.832 9.35938 82.1602 9.48438C82.4883 9.60938 82.793 9.78125 83.0742 10C83.3555 10.2031 83.5898 10.4531 83.7773 10.75C83.9648 11.0469 84.0586 11.375 84.0586 11.7344C84.1367 11.8594 84.0586 12.0391 83.8242 12.2734C83.6055 12.5078 83.3008 12.7656 82.9102 13.0469C82.5195 13.3125 82.0742 13.5938 81.5742 13.8906C81.0898 14.1719 80.6211 14.4375 80.168 14.6875C79.7148 14.9375 79.3164 15.1562 78.9727 15.3438C78.6289 15.5312 78.4023 15.6719 78.293 15.7656C78.2148 15.9219 78.1523 16.1016 78.1055 16.3047C78.0586 16.5078 78.0195 16.7031 77.9883 16.8906C77.9727 17.0625 77.957 17.2266 77.9414 17.3828C77.9414 17.5234 77.9414 17.6328 77.9414 17.7109C77.9414 18.0078 77.9258 18.3359 77.8945 18.6953C77.8789 19.0547 77.8945 19.3984 77.9414 19.7266C78.0039 20.0391 78.1367 20.3047 78.3398 20.5234C78.543 20.7266 78.8867 20.8281 79.3711 20.8281C79.8867 20.8281 80.3711 20.7031 80.8242 20.4531C81.2773 20.1875 81.6992 19.8672 82.0898 19.4922C82.4805 19.1172 82.832 18.7109 83.1445 18.2734C83.4727 17.8359 83.7617 17.4297 84.0117 17.0547C84.2773 16.6641 84.5117 16.3438 84.7148 16.0938C84.918 15.8438 85.0898 15.7188 85.2305 15.7188C85.3867 15.7188 85.5508 15.75 85.7227 15.8125C85.9102 15.8594 86.0039 15.9844 86.0039 16.1875C86.0039 16.4688 85.8867 16.8047 85.6523 17.1953C85.4336 17.5859 85.1367 18 84.7617 18.4375C84.4023 18.875 83.9805 19.3125 83.4961 19.75C83.0273 20.1719 82.5508 20.5547 82.0664 20.8984C81.582 21.2266 81.1055 21.5 80.6367 21.7188C80.168 21.9219 79.7539 22.0234 79.3945 22.0234C78.6914 22.0234 78.1602 21.8516 77.8008 21.5078C77.4414 21.1641 77.1836 20.7344 77.0273 20.2188C76.8867 19.7031 76.8086 19.1562 76.793 18.5781C76.793 17.9844 76.7852 17.4375 76.7695 16.9375ZM81.082 10.6094C80.8164 10.6094 80.5352 10.7422 80.2383 11.0078C79.9414 11.2578 79.6602 11.5703 79.3945 11.9453C79.1445 12.3047 78.9336 12.6797 78.7617 13.0703C78.6055 13.4453 78.5273 13.7578 78.5273 14.0078C78.7617 14.0078 79.0977 13.9219 79.5352 13.75C79.9883 13.5625 80.4336 13.3359 80.8711 13.0703C81.3086 12.8047 81.6914 12.5234 82.0195 12.2266C82.3477 11.9297 82.5117 11.6484 82.5117 11.3828C82.5117 11.2422 82.457 11.125 82.3477 11.0312C82.2383 10.9375 82.1055 10.8594 81.9492 10.7969C81.8086 10.7344 81.6602 10.6875 81.5039 10.6562C81.3477 10.625 81.207 10.6094 81.082 10.6094ZM87.1758 16.6094C87.2227 16.0469 87.2695 15.4375 87.3164 14.7812C87.3633 14.1094 87.4336 13.4453 87.5273 12.7891C87.6367 12.1328 87.7695 11.5078 87.9258 10.9141C88.0977 10.3203 88.3164 9.79688 88.582 9.34375C88.8633 8.875 89.207 8.50781 89.6133 8.24219C90.0195 7.96094 90.5117 7.82812 91.0898 7.84375C91.4805 7.84375 91.7773 8.00781 91.9805 8.33594C92.1992 8.66406 92.3477 9.0625 92.4258 9.53125C92.5195 10 92.5664 10.4844 92.5664 10.9844C92.582 11.4688 92.5898 11.8672 92.5898 12.1797C92.2773 12.1797 92.0195 12.0469 91.8164 11.7812C91.6133 11.5 91.457 11.1797 91.3477 10.8203C91.2383 10.4609 91.1602 10.1094 91.1133 9.76562L91.043 9.08594C91.0273 9.08594 90.9961 9.08594 90.9492 9.08594C90.918 9.07031 90.8945 9.0625 90.8789 9.0625C90.6133 9.0625 90.3633 9.21094 90.1289 9.50781C89.9102 9.80469 89.6992 10.1875 89.4961 10.6562C89.3086 11.1094 89.1445 11.625 89.0039 12.2031C88.8633 12.7656 88.7461 13.3203 88.6523 13.8672C88.5586 14.4141 88.4805 14.9219 88.418 15.3906C88.3711 15.8438 88.3477 16.1953 88.3477 16.4453C88.3164 16.8516 88.3164 17.2969 88.3477 17.7812C88.3789 18.2656 88.4727 18.7188 88.6289 19.1406C88.7852 19.5625 89.0039 19.9297 89.2852 20.2422C89.5664 20.5391 89.9414 20.7422 90.4102 20.8516C90.9883 20.8516 91.457 20.7734 91.8164 20.6172C92.1758 20.4609 92.4648 20.25 92.6836 19.9844C92.918 19.7188 93.0977 19.4219 93.2227 19.0938C93.3477 18.7656 93.4648 18.4297 93.5742 18.0859C93.6992 17.7266 93.8242 17.375 93.9492 17.0312C94.0742 16.6875 94.2539 16.3672 94.4883 16.0703C94.6758 16.0234 94.8086 16.0312 94.8867 16.0938C94.9805 16.1406 95.043 16.2109 95.0742 16.3047C95.1055 16.3984 95.1211 16.5078 95.1211 16.6328V16.8906C95.1211 17.5469 95.0117 18.1797 94.793 18.7891C94.5742 19.3984 94.2539 19.9453 93.832 20.4297C93.4102 20.8984 92.9023 21.2812 92.3086 21.5781C91.7305 21.8594 91.0664 22 90.3164 22C89.6914 22 89.168 21.8047 88.7461 21.4141C88.3398 21.0078 88.0195 20.5234 87.7852 19.9609C87.5664 19.3984 87.4102 18.8125 87.3164 18.2031C87.2227 17.5781 87.1758 17.0469 87.1758 16.6094ZM104.965 11.7578C104.387 11.5391 103.832 11.625 103.301 12.0156C102.77 12.4062 102.262 12.9609 101.777 13.6797C101.293 14.3828 100.832 15.1875 100.395 16.0938C99.957 17 99.5508 17.8594 99.1758 18.6719C98.8008 19.4844 98.457 20.1797 98.1445 20.7578C97.8477 21.3359 97.5742 21.6562 97.3242 21.7188C97.1367 21.7188 96.9883 21.6875 96.8789 21.625C96.7852 21.5469 96.7383 21.3672 96.7383 21.0859V4.60938C96.7383 4.46875 96.793 4.38281 96.9023 4.35156C97.0273 4.32031 97.1602 4.3125 97.3008 4.32812C97.4414 4.34375 97.5742 4.38281 97.6992 4.44531C97.8242 4.49219 97.9023 4.54688 97.9336 4.60938L98.2383 17.8047C98.4102 17.5234 98.5664 17.1328 98.707 16.6328C98.8633 16.1172 99.043 15.5703 99.2461 14.9922C99.4492 14.3984 99.6836 13.8125 99.9492 13.2344C100.23 12.6406 100.574 12.1094 100.98 11.6406C101.387 11.1719 101.879 10.8125 102.457 10.5625C103.051 10.2969 103.746 10.2031 104.543 10.2812C105.074 10.2812 105.504 10.4531 105.832 10.7969C106.16 11.125 106.332 11.5625 106.348 12.1094L106.582 21.4609C106.582 21.5234 106.566 21.6172 106.535 21.7422C106.52 21.8516 106.457 21.9453 106.348 22.0234C106.254 22.1172 106.113 22.1719 105.926 22.1875C105.754 22.2188 105.527 22.1797 105.246 22.0703L104.965 11.7578ZM114.41 21.3906C114.332 20.9844 114.262 20.5 114.199 19.9375C114.152 19.3594 114.098 18.7812 114.035 18.2031C113.973 17.6094 113.895 17.0547 113.801 16.5391C113.723 16.0234 113.598 15.6016 113.426 15.2734C112.629 16.8984 111.926 18.1797 111.316 19.1172C110.707 20.0391 110.168 20.7031 109.699 21.1094C109.246 21.5 108.863 21.6875 108.551 21.6719C108.238 21.6562 107.98 21.5156 107.777 21.25C107.574 20.9844 107.426 20.6484 107.332 20.2422C107.254 19.8203 107.199 19.4297 107.168 19.0703C107.168 18.7266 107.246 18.2422 107.402 17.6172C107.559 16.9922 107.77 16.3125 108.035 15.5781C108.301 14.8281 108.613 14.0703 108.973 13.3047C109.348 12.5391 109.746 11.8438 110.168 11.2188C110.59 10.5938 111.027 10.0781 111.48 9.67188C111.934 9.26562 112.387 9.0625 112.84 9.0625C113.512 8.95312 114.004 9.10156 114.316 9.50781C114.645 9.89844 114.707 10.5625 114.504 11.5C114.504 12.5312 114.543 13.4141 114.621 14.1484C114.715 14.8828 114.809 15.5859 114.902 16.2578C115.012 16.9297 115.105 17.6328 115.184 18.3672C115.277 19.1016 115.324 19.9844 115.324 21.0156C115.324 21.2031 115.301 21.3672 115.254 21.5078C115.223 21.6328 115.035 21.6953 114.691 21.6953C114.645 21.6953 114.582 21.6562 114.504 21.5781C114.441 21.5 114.41 21.4375 114.41 21.3906ZM113.145 10.9141C112.973 10.6641 112.738 10.6406 112.441 10.8438C112.145 11.0469 111.832 11.3828 111.504 11.8516C111.176 12.3203 110.84 12.8828 110.496 13.5391C110.152 14.1953 109.832 14.8594 109.535 15.5312C109.238 16.2031 108.98 16.8438 108.762 17.4531C108.543 18.0469 108.395 18.5391 108.316 18.9297C108.316 19.4922 108.402 19.8125 108.574 19.8906C108.746 19.9531 108.957 19.8594 109.207 19.6094C109.457 19.3594 109.738 19 110.051 18.5312C110.379 18.0625 110.691 17.5625 110.988 17.0312C111.301 16.5 111.59 15.9844 111.855 15.4844C112.137 14.9844 112.355 14.5781 112.512 14.2656C112.652 13.9375 112.762 13.6328 112.84 13.3516C112.918 13.0703 112.98 12.8047 113.027 12.5547C113.09 12.2891 113.121 12.0234 113.121 11.7578C113.137 11.4922 113.145 11.2109 113.145 10.9141ZM116.543 10.7031V10.5156C116.543 10.3594 116.598 10.25 116.707 10.1875C116.832 10.125 116.973 10.0938 117.129 10.0938C117.254 10.0938 117.371 10.1094 117.48 10.1406C117.59 10.1562 117.676 10.2422 117.738 10.3984C117.785 10.6328 117.832 10.9609 117.879 11.3828C117.926 11.7891 117.98 12.2422 118.043 12.7422C118.105 13.2422 118.168 13.7734 118.23 14.3359C118.309 14.8828 118.379 15.4062 118.441 15.9062C118.52 16.3906 118.598 16.8281 118.676 17.2188C118.754 17.6094 118.84 17.9062 118.934 18.1094C118.887 16.6094 118.934 15.3125 119.074 14.2188C119.215 13.1094 119.48 12.2109 119.871 11.5234C120.277 10.8203 120.824 10.3359 121.512 10.0703C122.215 9.78906 123.09 9.72656 124.137 9.88281C124.621 9.88281 124.863 10.1406 124.863 10.6562C124.863 10.8594 124.73 11 124.465 11.0781C124.199 11.1406 123.902 11.1875 123.574 11.2188C123.246 11.2344 122.926 11.2578 122.613 11.2891C122.301 11.3203 122.074 11.3984 121.934 11.5234C121.371 11.8359 120.973 12.3203 120.738 12.9766C120.52 13.6328 120.363 14.4062 120.27 15.2969C120.176 16.1875 120.105 17.1641 120.059 18.2266C120.027 19.2734 119.926 20.3516 119.754 21.4609C119.754 21.6172 119.691 21.7344 119.566 21.8125C119.441 21.8906 119.285 21.9297 119.098 21.9297C118.926 21.9297 118.754 21.8906 118.582 21.8125C118.426 21.7344 118.301 21.6172 118.207 21.4609L116.543 10.7031ZM127.676 31.1641C129.051 31.0859 130.129 30.7266 130.91 30.0859C131.707 29.4453 132.301 28.6172 132.691 27.6016C133.082 26.5859 133.316 25.4219 133.395 24.1094C133.473 22.8125 133.48 21.4688 133.418 20.0781C133.355 18.6875 133.262 17.2969 133.137 15.9062C133.027 14.5 132.98 13.1953 132.996 11.9922C132.324 13.9609 131.691 15.5547 131.098 16.7734C130.504 17.9766 129.949 18.8906 129.434 19.5156C128.934 20.125 128.473 20.5 128.051 20.6406C127.645 20.7656 127.285 20.7422 126.973 20.5703C126.66 20.3828 126.402 20.0938 126.199 19.7031C126.012 19.2969 125.879 18.8828 125.801 18.4609C125.832 17.7422 125.973 16.9531 126.223 16.0938C126.488 15.2188 126.824 14.3672 127.23 13.5391C127.652 12.6953 128.137 11.9141 128.684 11.1953C129.23 10.4609 129.809 9.89062 130.418 9.48438C131.027 9.0625 131.66 8.84375 132.316 8.82812C132.973 8.79688 133.605 9.04688 134.215 9.57812C134.23 9.59375 134.254 9.80469 134.285 10.2109C134.332 10.6016 134.379 11.125 134.426 11.7812C134.488 12.4219 134.551 13.1484 134.613 13.9609C134.691 14.7578 134.762 15.5703 134.824 16.3984C134.887 17.2109 134.941 17.9922 134.988 18.7422C135.035 19.4922 135.082 20.1406 135.129 20.6875C135.191 21.5781 135.152 22.5234 135.012 23.5234C134.887 24.5234 134.684 25.4922 134.402 26.4297C134.121 27.3828 133.762 28.2734 133.324 29.1016C132.902 29.9297 132.41 30.6094 131.848 31.1406C131.301 31.6719 130.684 32.0078 129.996 32.1484C129.324 32.3047 128.605 32.1875 127.84 31.7969C127.793 31.7969 127.723 31.7891 127.629 31.7734C127.535 31.7734 127.457 31.75 127.395 31.7031C127.348 31.6562 127.34 31.5938 127.371 31.5156C127.402 31.4375 127.504 31.3203 127.676 31.1641ZM127.02 18.2969C127.176 18.7812 127.379 19.0312 127.629 19.0469C127.895 19.0469 128.176 18.8828 128.473 18.5547C128.77 18.2109 129.09 17.7344 129.434 17.125C129.793 16.5156 130.145 15.8516 130.488 15.1328C130.832 14.4141 131.168 13.6797 131.496 12.9297C131.84 12.1641 132.16 11.4531 132.457 10.7969C132.457 10.625 132.418 10.4688 132.34 10.3281C132.262 10.1719 132.09 10.125 131.824 10.1875C131.387 10.2812 130.957 10.4922 130.535 10.8203C130.129 11.1484 129.746 11.5547 129.387 12.0391C129.043 12.5078 128.723 13.0312 128.426 13.6094C128.145 14.1719 127.895 14.7422 127.676 15.3203C127.473 15.8828 127.309 16.4219 127.184 16.9375C127.074 17.4531 127.02 17.9062 127.02 18.2969ZM137.238 16.9375C137.16 16.9531 137.043 16.9766 136.887 17.0078C136.73 17.0391 136.566 17.0469 136.395 17.0312C136.223 17.0156 136.074 16.9688 135.949 16.8906C135.809 16.8125 135.738 16.6797 135.738 16.4922C135.738 16.3828 135.762 16.3047 135.809 16.2578C135.855 16.2109 135.934 16.1406 136.043 16.0469C136.387 15.7656 136.676 15.4062 136.91 14.9688C137.16 14.5156 137.387 14.0391 137.59 13.5391C137.793 13.0234 138.004 12.5156 138.223 12.0156C138.457 11.5 138.723 11.0391 139.02 10.6328C139.316 10.2266 139.684 9.89844 140.121 9.64844C140.559 9.39844 141.098 9.28125 141.738 9.29688C142.004 9.29688 142.301 9.35938 142.629 9.48438C142.957 9.60938 143.262 9.78125 143.543 10C143.824 10.2031 144.059 10.4531 144.246 10.75C144.434 11.0469 144.527 11.375 144.527 11.7344C144.605 11.8594 144.527 12.0391 144.293 12.2734C144.074 12.5078 143.77 12.7656 143.379 13.0469C142.988 13.3125 142.543 13.5938 142.043 13.8906C141.559 14.1719 141.09 14.4375 140.637 14.6875C140.184 14.9375 139.785 15.1562 139.441 15.3438C139.098 15.5312 138.871 15.6719 138.762 15.7656C138.684 15.9219 138.621 16.1016 138.574 16.3047C138.527 16.5078 138.488 16.7031 138.457 16.8906C138.441 17.0625 138.426 17.2266 138.41 17.3828C138.41 17.5234 138.41 17.6328 138.41 17.7109C138.41 18.0078 138.395 18.3359 138.363 18.6953C138.348 19.0547 138.363 19.3984 138.41 19.7266C138.473 20.0391 138.605 20.3047 138.809 20.5234C139.012 20.7266 139.355 20.8281 139.84 20.8281C140.355 20.8281 140.84 20.7031 141.293 20.4531C141.746 20.1875 142.168 19.8672 142.559 19.4922C142.949 19.1172 143.301 18.7109 143.613 18.2734C143.941 17.8359 144.23 17.4297 144.48 17.0547C144.746 16.6641 144.98 16.3438 145.184 16.0938C145.387 15.8438 145.559 15.7188 145.699 15.7188C145.855 15.7188 146.02 15.75 146.191 15.8125C146.379 15.8594 146.473 15.9844 146.473 16.1875C146.473 16.4688 146.355 16.8047 146.121 17.1953C145.902 17.5859 145.605 18 145.23 18.4375C144.871 18.875 144.449 19.3125 143.965 19.75C143.496 20.1719 143.02 20.5547 142.535 20.8984C142.051 21.2266 141.574 21.5 141.105 21.7188C140.637 21.9219 140.223 22.0234 139.863 22.0234C139.16 22.0234 138.629 21.8516 138.27 21.5078C137.91 21.1641 137.652 20.7344 137.496 20.2188C137.355 19.7031 137.277 19.1562 137.262 18.5781C137.262 17.9844 137.254 17.4375 137.238 16.9375ZM141.551 10.6094C141.285 10.6094 141.004 10.7422 140.707 11.0078C140.41 11.2578 140.129 11.5703 139.863 11.9453C139.613 12.3047 139.402 12.6797 139.23 13.0703C139.074 13.4453 138.996 13.7578 138.996 14.0078C139.23 14.0078 139.566 13.9219 140.004 13.75C140.457 13.5625 140.902 13.3359 141.34 13.0703C141.777 12.8047 142.16 12.5234 142.488 12.2266C142.816 11.9297 142.98 11.6484 142.98 11.3828C142.98 11.2422 142.926 11.125 142.816 11.0312C142.707 10.9375 142.574 10.8594 142.418 10.7969C142.277 10.7344 142.129 10.6875 141.973 10.6562C141.816 10.625 141.676 10.6094 141.551 10.6094ZM160.676 20.8984C160.707 20.7422 160.902 20.5938 161.262 20.4531C161.621 20.3125 162.066 20.1641 162.598 20.0078C163.129 19.8516 163.715 19.6797 164.355 19.4922C164.996 19.3047 165.613 19.0938 166.207 18.8594C166.801 18.625 167.34 18.3594 167.824 18.0625C168.324 17.7656 168.691 17.4219 168.926 17.0312C168.926 16.7969 168.77 16.6172 168.457 16.4922C168.16 16.3672 167.754 16.2656 167.238 16.1875C166.738 16.0938 166.16 16.0234 165.504 15.9766C164.863 15.9141 164.199 15.8359 163.512 15.7422C162.84 15.6328 162.176 15.5078 161.52 15.3672C160.879 15.2109 160.301 15 159.785 14.7344C159.285 14.4531 158.879 14.1016 158.566 13.6797C158.27 13.2578 158.121 12.7422 158.121 12.1328C158.121 11.5234 158.254 10.9219 158.52 10.3281C158.785 9.71875 159.137 9.13281 159.574 8.57031C160.027 8.00781 160.535 7.48438 161.098 7C161.676 6.51562 162.277 6.09375 162.902 5.73438C163.527 5.375 164.145 5.09375 164.754 4.89062C165.379 4.6875 165.957 4.58594 166.488 4.58594C166.629 4.58594 166.777 4.58594 166.934 4.58594C167.09 4.57031 167.223 4.57812 167.332 4.60938C167.457 4.625 167.559 4.67969 167.637 4.77344C167.715 4.86719 167.754 5.00781 167.754 5.19531C167.754 5.64844 167.605 5.97656 167.309 6.17969C167.012 6.36719 166.652 6.46094 166.23 6.46094L165.316 5.80469C164.957 5.80469 164.559 5.90625 164.121 6.10938C163.699 6.3125 163.262 6.58594 162.809 6.92969C162.371 7.25781 161.941 7.64062 161.52 8.07812C161.098 8.51562 160.723 8.96875 160.395 9.4375C160.082 9.90625 159.824 10.375 159.621 10.8438C159.434 11.3125 159.34 11.7344 159.34 12.1094C159.34 12.6562 159.488 13.1016 159.785 13.4453C160.098 13.7734 160.504 14.0391 161.004 14.2422C161.52 14.4297 162.105 14.5703 162.762 14.6641C163.418 14.7578 164.082 14.8359 164.754 14.8984C165.426 14.9609 166.09 15.0234 166.746 15.0859C167.402 15.1328 167.98 15.2266 168.48 15.3672C168.996 15.5078 169.402 15.6953 169.699 15.9297C170.012 16.1641 170.168 16.4844 170.168 16.8906C170.34 17.1406 170.301 17.4297 170.051 17.7578C169.816 18.0703 169.441 18.3906 168.926 18.7188C168.426 19.0312 167.824 19.3516 167.121 19.6797C166.434 19.9922 165.723 20.2812 164.988 20.5469C164.254 20.7969 163.543 21.0156 162.855 21.2031C162.168 21.375 161.582 21.4844 161.098 21.5312C160.957 21.5312 160.832 21.4844 160.723 21.3906C160.629 21.2969 160.613 21.1328 160.676 20.8984ZM171.504 28.1641C171.676 26.5234 171.77 24.9609 171.785 23.4766C171.816 22.0078 171.809 20.5547 171.762 19.1172C171.73 17.6797 171.676 16.2266 171.598 14.7578C171.52 13.2891 171.473 11.7344 171.457 10.0938C171.504 9.875 171.559 9.71094 171.621 9.60156C171.699 9.47656 171.895 9.44531 172.207 9.50781C172.535 9.58594 172.73 9.77344 172.793 10.0703C172.855 10.3516 172.871 10.6719 172.84 11.0312C172.809 11.3906 172.762 11.75 172.699 12.1094C172.637 12.4688 172.637 12.7578 172.699 12.9766C173.199 12.6172 173.73 12.2422 174.293 11.8516C174.855 11.4609 175.441 11.1172 176.051 10.8203C176.66 10.5078 177.293 10.2812 177.949 10.1406C178.605 9.98438 179.262 9.97656 179.918 10.1172C180.73 10.3047 181.293 10.5859 181.605 10.9609C181.934 11.3203 182.059 11.7422 181.98 12.2266C181.918 12.6953 181.699 13.2188 181.324 13.7969C180.949 14.3594 180.488 14.9297 179.941 15.5078C179.395 16.0859 178.785 16.6562 178.113 17.2188C177.441 17.7812 176.785 18.3047 176.145 18.7891C175.504 19.2578 174.902 19.6719 174.34 20.0312C173.793 20.3906 173.355 20.6562 173.027 20.8281C173.012 21.0156 172.988 21.3125 172.957 21.7188C172.941 22.1094 172.918 22.5547 172.887 23.0547C172.871 23.5547 172.848 24.0781 172.816 24.625C172.801 25.1719 172.777 25.6953 172.746 26.1953C172.73 26.6953 172.707 27.1406 172.676 27.5312C172.66 27.9219 172.652 28.2109 172.652 28.3984C172.621 28.4141 172.566 28.4297 172.488 28.4453C172.41 28.4609 172.316 28.4688 172.207 28.4688C172.098 28.4844 171.996 28.4922 171.902 28.4922C171.809 28.5078 171.746 28.5078 171.715 28.4922C171.668 28.4922 171.621 28.4453 171.574 28.3516C171.527 28.2734 171.504 28.2109 171.504 28.1641ZM172.816 15.3203C172.77 15.5391 172.754 15.8125 172.77 16.1406C172.801 16.4531 172.832 16.7891 172.863 17.1484C172.91 17.4922 172.957 17.8281 173.004 18.1562C173.051 18.4844 173.082 18.7656 173.098 19C173.691 18.5469 174.379 18.0859 175.16 17.6172C175.957 17.1484 176.723 16.6406 177.457 16.0938C178.207 15.5469 178.871 14.9375 179.449 14.2656C180.027 13.5938 180.41 12.8359 180.598 11.9922C180.66 11.6641 180.629 11.4453 180.504 11.3359C180.395 11.2109 180.199 11.125 179.918 11.0781C179.324 10.9531 178.645 11 177.879 11.2188C177.113 11.4219 176.371 11.7266 175.652 12.1328C174.949 12.5391 174.332 13.0234 173.801 13.5859C173.27 14.1484 172.941 14.7266 172.816 15.3203ZM183.691 16.9375C183.613 16.9531 183.496 16.9766 183.34 17.0078C183.184 17.0391 183.02 17.0469 182.848 17.0312C182.676 17.0156 182.527 16.9688 182.402 16.8906C182.262 16.8125 182.191 16.6797 182.191 16.4922C182.191 16.3828 182.215 16.3047 182.262 16.2578C182.309 16.2109 182.387 16.1406 182.496 16.0469C182.84 15.7656 183.129 15.4062 183.363 14.9688C183.613 14.5156 183.84 14.0391 184.043 13.5391C184.246 13.0234 184.457 12.5156 184.676 12.0156C184.91 11.5 185.176 11.0391 185.473 10.6328C185.77 10.2266 186.137 9.89844 186.574 9.64844C187.012 9.39844 187.551 9.28125 188.191 9.29688C188.457 9.29688 188.754 9.35938 189.082 9.48438C189.41 9.60938 189.715 9.78125 189.996 10C190.277 10.2031 190.512 10.4531 190.699 10.75C190.887 11.0469 190.98 11.375 190.98 11.7344C191.059 11.8594 190.98 12.0391 190.746 12.2734C190.527 12.5078 190.223 12.7656 189.832 13.0469C189.441 13.3125 188.996 13.5938 188.496 13.8906C188.012 14.1719 187.543 14.4375 187.09 14.6875C186.637 14.9375 186.238 15.1562 185.895 15.3438C185.551 15.5312 185.324 15.6719 185.215 15.7656C185.137 15.9219 185.074 16.1016 185.027 16.3047C184.98 16.5078 184.941 16.7031 184.91 16.8906C184.895 17.0625 184.879 17.2266 184.863 17.3828C184.863 17.5234 184.863 17.6328 184.863 17.7109C184.863 18.0078 184.848 18.3359 184.816 18.6953C184.801 19.0547 184.816 19.3984 184.863 19.7266C184.926 20.0391 185.059 20.3047 185.262 20.5234C185.465 20.7266 185.809 20.8281 186.293 20.8281C186.809 20.8281 187.293 20.7031 187.746 20.4531C188.199 20.1875 188.621 19.8672 189.012 19.4922C189.402 19.1172 189.754 18.7109 190.066 18.2734C190.395 17.8359 190.684 17.4297 190.934 17.0547C191.199 16.6641 191.434 16.3438 191.637 16.0938C191.84 15.8438 192.012 15.7188 192.152 15.7188C192.309 15.7188 192.473 15.75 192.645 15.8125C192.832 15.8594 192.926 15.9844 192.926 16.1875C192.926 16.4688 192.809 16.8047 192.574 17.1953C192.355 17.5859 192.059 18 191.684 18.4375C191.324 18.875 190.902 19.3125 190.418 19.75C189.949 20.1719 189.473 20.5547 188.988 20.8984C188.504 21.2266 188.027 21.5 187.559 21.7188C187.09 21.9219 186.676 22.0234 186.316 22.0234C185.613 22.0234 185.082 21.8516 184.723 21.5078C184.363 21.1641 184.105 20.7344 183.949 20.2188C183.809 19.7031 183.73 19.1562 183.715 18.5781C183.715 17.9844 183.707 17.4375 183.691 16.9375ZM188.004 10.6094C187.738 10.6094 187.457 10.7422 187.16 11.0078C186.863 11.2578 186.582 11.5703 186.316 11.9453C186.066 12.3047 185.855 12.6797 185.684 13.0703C185.527 13.4453 185.449 13.7578 185.449 14.0078C185.684 14.0078 186.02 13.9219 186.457 13.75C186.91 13.5625 187.355 13.3359 187.793 13.0703C188.23 12.8047 188.613 12.5234 188.941 12.2266C189.27 11.9297 189.434 11.6484 189.434 11.3828C189.434 11.2422 189.379 11.125 189.27 11.0312C189.16 10.9375 189.027 10.8594 188.871 10.7969C188.73 10.7344 188.582 10.6875 188.426 10.6562C188.27 10.625 188.129 10.6094 188.004 10.6094ZM195.082 21.6953C194.91 19.5859 194.754 17.4766 194.613 15.3672C194.488 13.2422 194.348 11.0391 194.191 8.75781C194.191 8.38281 194.395 8.19531 194.801 8.19531H194.988C195.035 8.19531 195.09 8.25781 195.152 8.38281C195.215 8.50781 195.277 8.74219 195.34 9.08594C195.418 9.41406 195.496 9.92188 195.574 10.6094C195.668 11.2812 195.777 12.1641 195.902 13.2578C196.027 14.3516 196.168 15.7188 196.324 17.3594C196.652 16.2969 196.91 15.2656 197.098 14.2656C197.285 13.2656 197.527 12.3594 197.824 11.5469C198.121 10.7188 198.535 9.99219 199.066 9.36719C199.613 8.74219 200.395 8.28125 201.41 7.98438C201.973 8.07812 202.426 8.42188 202.77 9.01562C203.113 9.59375 203.387 10.3125 203.59 11.1719C203.793 12.0312 203.934 12.9688 204.012 13.9844C204.09 14.9844 204.137 15.9453 204.152 16.8672C204.168 17.7891 204.176 18.6172 204.176 19.3516C204.176 20.0703 204.191 20.5859 204.223 20.8984C204.176 21.0234 204.105 21.1328 204.012 21.2266C203.918 21.3203 203.809 21.3906 203.684 21.4375C203.574 21.4688 203.465 21.4766 203.355 21.4609C203.246 21.4297 203.145 21.3438 203.051 21.2031C203.051 21.0312 203.035 20.6797 203.004 20.1484C202.973 19.6172 202.934 19 202.887 18.2969C202.84 17.5781 202.785 16.8203 202.723 16.0234C202.676 15.2109 202.629 14.4531 202.582 13.75C202.551 13.0312 202.52 12.4062 202.488 11.875C202.457 11.3438 202.434 10.9922 202.418 10.8203C202.09 10.2422 201.762 9.91406 201.434 9.83594C201.121 9.75781 200.801 9.85938 200.473 10.1406C200.16 10.4219 199.855 10.8516 199.559 11.4297C199.262 12.0078 198.98 12.6641 198.715 13.3984C198.449 14.1172 198.199 14.875 197.965 15.6719C197.73 16.4688 197.527 17.2422 197.355 17.9922C197.184 18.7266 197.035 19.3984 196.91 20.0078C196.801 20.6016 196.73 21.0625 196.699 21.3906C196.652 21.5 196.551 21.6094 196.395 21.7188C196.254 21.8125 196.098 21.8828 195.926 21.9297C195.77 21.9766 195.605 21.9922 195.434 21.9766C195.277 21.9453 195.16 21.8516 195.082 21.6953ZM210.832 17.7109C210.676 18.0703 210.473 18.4844 210.223 18.9531C209.988 19.4219 209.707 19.8672 209.379 20.2891C209.066 20.7109 208.699 21.0703 208.277 21.3672C207.855 21.6641 207.387 21.8125 206.871 21.8125C206.637 21.8125 206.449 21.7891 206.309 21.7422C206.184 21.6797 206.066 21.5938 205.957 21.4844C205.863 21.375 205.77 21.2422 205.676 21.0859C205.598 20.9297 205.496 20.7578 205.371 20.5703C205.324 19.8047 205.293 18.9844 205.277 18.1094C205.277 17.2188 205.324 16.3359 205.418 15.4609C205.512 14.5703 205.668 13.7344 205.887 12.9531C206.121 12.1719 206.441 11.5078 206.848 10.9609C207.27 10.4141 207.793 10.0234 208.418 9.78906C209.043 9.55469 209.801 9.53906 210.691 9.74219C210.738 9.30469 210.746 8.71875 210.715 7.98438C210.684 7.25 210.637 6.47656 210.574 5.66406C210.512 4.85156 210.449 4.07031 210.387 3.32031C210.324 2.55469 210.285 1.92969 210.27 1.44531C210.27 1.30469 210.332 1.20312 210.457 1.14062C210.598 1.0625 210.746 1.01562 210.902 1C211.059 0.984375 211.207 0.984375 211.348 1C211.504 1.01562 211.605 1.03906 211.652 1.07031C211.621 2.99219 211.613 4.88281 211.629 6.74219C211.645 8.58594 211.66 10.4297 211.676 12.2734C211.707 14.1016 211.738 15.9219 211.77 17.7344C211.801 19.5469 211.816 21.3594 211.816 23.1719C211.816 23.3438 211.801 23.5234 211.77 23.7109C211.754 23.9141 211.621 24.0156 211.371 24.0156C211.277 24.0156 211.184 23.9844 211.09 23.9219C210.996 23.875 210.934 23.7969 210.902 23.6875L210.832 17.7109ZM209.824 10.9141C209.34 10.8828 208.887 11.0781 208.465 11.5C208.059 11.9062 207.699 12.4375 207.387 13.0938C207.09 13.75 206.848 14.4766 206.66 15.2734C206.473 16.0547 206.355 16.8125 206.309 17.5469C206.277 18.2656 206.324 18.9062 206.449 19.4688C206.59 20.0312 206.832 20.4141 207.176 20.6172C207.52 20.6172 207.84 20.4844 208.137 20.2188C208.434 19.9375 208.707 19.5859 208.957 19.1641C209.207 18.7422 209.426 18.2734 209.613 17.7578C209.801 17.2266 209.957 16.7188 210.082 16.2344C210.223 15.75 210.324 15.3125 210.387 14.9219C210.465 14.5156 210.504 14.2109 210.504 14.0078C210.504 13.8516 210.512 13.6016 210.527 13.2578C210.543 12.9141 210.535 12.5703 210.504 12.2266C210.473 11.8828 210.402 11.5781 210.293 11.3125C210.199 11.0469 210.043 10.9141 209.824 10.9141Z" fill="black"/>
</svg>
