<svg width="32" height="32" viewBox="0 0 32 32" fill="none" xmlns="http://www.w3.org/2000/svg">
<g clip-path="url(#clip0_371_8201)">
<path d="M29.8844 15.5822C26.8889 10.0445 21.6356 6.69336 15.8222 6.69336C10.0089 6.69336 4.74666 10.0445 1.77777 15.5822L1.52888 16L1.76 16.4267C4.75555 21.9645 10.0089 25.3156 15.8222 25.3156C21.6356 25.3156 26.8978 22.0089 29.8844 16.4267L30.1156 16L29.8844 15.5822ZM15.8222 23.4934C10.8178 23.4934 6.22222 20.7022 3.55555 16C6.22222 11.2978 10.8178 8.50669 15.8222 8.50669C20.8267 8.50669 25.3689 11.3067 28.08 16C25.3689 20.7022 20.8178 23.4934 15.8222 23.4934Z" fill="black"/>
<path d="M16.08 9.92887C14.8748 9.93767 13.6992 10.3034 12.7017 10.98C11.7042 11.6565 10.9296 12.6135 10.4757 13.73C10.0218 14.8465 9.90892 16.0725 10.1514 17.2531C10.3938 18.4337 10.9807 19.516 11.8379 20.3633C12.6951 21.2106 13.7841 21.7848 14.9675 22.0135C16.1509 22.2422 17.3755 22.1151 18.4866 21.6482C19.5978 21.1813 20.5457 20.3956 21.2105 19.3903C21.8754 18.385 22.2275 17.2052 22.2222 16C22.2187 15.1977 22.057 14.404 21.7462 13.6644C21.4354 12.9247 20.9817 12.2537 20.4111 11.6897C19.8405 11.1257 19.1642 10.6798 18.421 10.3777C17.6778 10.0755 16.8823 9.92302 16.08 9.92887ZM16.08 20.3467C15.2287 20.3379 14.3989 20.0777 13.6949 19.5989C12.991 19.1201 12.4442 18.444 12.1232 17.6554C11.8023 16.8668 11.7215 16.001 11.891 15.1667C12.0606 14.3324 12.4728 13.5667 13.0761 12.966C13.6793 12.3652 14.4466 11.956 15.2816 11.7899C16.1166 11.6238 16.9821 11.7081 17.7694 12.0323C18.5566 12.3564 19.2305 12.906 19.7065 13.6119C20.1824 14.3178 20.4391 15.1486 20.4444 16C20.4468 16.573 20.3354 17.1407 20.1167 17.6703C19.898 18.1999 19.5763 18.6808 19.1703 19.0851C18.7643 19.4895 18.2821 19.8092 17.7516 20.0257C17.2212 20.2423 16.653 20.3514 16.08 20.3467Z" fill="black"/>
</g>
<defs>
<clipPath id="clip0_371_8201">
<rect width="32" height="32" fill="white"/>
</clipPath>
</defs>
</svg>
