<svg width="45" height="45" viewBox="0 0 45 45" fill="none" xmlns="http://www.w3.org/2000/svg">
<path d="M23.8635 8.39355H21.051V24.0478L31.2123 28.8773L32.4197 26.337L23.8635 22.2705V8.39355Z" fill="#2F96D7"/>
<path d="M22.5 1.40625C10.8503 1.40625 1.40625 10.8503 1.40625 22.5C1.40625 34.1497 10.8503 43.5938 22.5 43.5938C34.1497 43.5938 43.5938 34.1497 43.5938 22.5C43.5938 10.8503 34.1497 1.40625 22.5 1.40625ZM22.5 40.7812C12.4036 40.7812 4.21875 32.5964 4.21875 22.5C4.21875 12.4036 12.4036 4.21875 22.5 4.21875C32.5964 4.21875 40.7812 12.4036 40.7812 22.5C40.7812 32.5964 32.5964 40.7812 22.5 40.7812Z" fill="#2F96D7"/>
</svg>
