<svg width="20" height="20" viewBox="0 0 32 32" fill="none" xmlns="http://www.w3.org/2000/svg">
<path d="M6.00001 29.5C5.99701 29.8942 6.15048 30.2735 6.42674 30.5547C6.70301 30.8359 7.07952 30.996 7.4737 31H24.5263C24.9205 30.996 25.297 30.8359 25.5733 30.5547C25.8496 30.2735 26.003 29.8942 26 29.5V9.5H6.00001V29.5ZM8.00001 11.5H24V29H8.00001V11.5Z" fill="#CE3F3F"/>
<path d="M10.5 13.5H12.5V26H10.5V13.5ZM15 13.5H17V26H15V13.5ZM19.5 13.5H21.5V26H19.5V13.5ZM20.5 5.5V2.5C20.5 1.65887 19.907 1 19.15 1H12.85C12.093 1 11.5 1.65887 11.5 2.5V5.5H4V7.5H28V5.5H20.5ZM13.5 3H18.5V5.5H13.5V3Z" fill="#CE3F3F"/>
</svg>
