<svg width="47" height="47" viewBox="0 0 47 47" fill="none" xmlns="http://www.w3.org/2000/svg">
<path d="M23.4 46.6563C36.3235 46.6563 46.8 36.2119 46.8 23.3282C46.8 10.4444 36.3235 0 23.4 0C10.4765 0 0 10.4444 0 23.3282C0 36.2119 10.4765 46.6563 23.4 46.6563Z" fill="#F5FAFD"/>
<path d="M19.9645 33.2916H24.2978V24.6141H28.2022L28.6312 20.3024H24.2978V18.1249C24.2978 17.8376 24.412 17.5621 24.6151 17.3589C24.8183 17.1557 25.0939 17.0416 25.3812 17.0416H28.6312V12.7083H25.3812C23.9446 12.7083 22.5668 13.2789 21.551 14.2948C20.5352 15.3106 19.9645 16.6883 19.9645 18.1249V20.3024H17.7978L17.3688 24.6141H19.9645V33.2916Z" fill="#062E47"/>
</svg>
