<svg width="32" height="32" viewBox="0 0 32 32" fill="none" xmlns="http://www.w3.org/2000/svg">
<path d="M28.1528 15.1921H2.90577V28.3644H28.1528V15.1921Z" fill="#DC157C"/>
<path d="M20.4689 4.21515H4.00346V15.1921H20.4689V4.21515Z" fill="#DC157C"/>
<path d="M25.1122 12.9857C26.5437 13.409 27.8562 14.1617 28.9447 15.1834C30.0331 16.2051 30.8671 17.4674 31.38 18.8694C31.9598 20.3224 32.1374 21.9047 31.894 23.4501C31.6506 24.9954 30.9953 26.4466 29.9969 27.651C29.3013 28.6074 28.4196 29.4135 27.4048 30.0209C26.39 30.6283 25.263 31.0244 24.0913 31.1855C23.5867 31.2675 23.0767 31.3115 22.5655 31.3173H5.41949C4.69097 31.3381 3.96605 31.2076 3.29055 30.9339C2.61506 30.6602 2.00368 30.2494 1.49507 29.7274C0.986468 29.2054 0.591692 28.5835 0.335702 27.9011C0.0797129 27.2187 -0.0319227 26.4907 0.0078528 25.7629C0.0078528 18.9901 0.0078528 12.2283 0.0078528 5.45555C-0.0354062 4.57179 0.142744 3.69122 0.52613 2.89377C0.909517 2.09633 1.486 1.40727 2.20324 0.889134C3.00074 0.317781 3.95549 0.00719792 4.93651 0C9.01994 0 13.1143 0 17.1978 0C19.171 0.0428988 21.0558 0.826612 22.4777 2.19539C23.9 3.39899 24.9223 5.00704 25.4085 6.80572C25.5435 7.41206 25.6243 8.02919 25.65 8.64985C25.7941 9.91506 25.6592 11.1965 25.2549 12.404C25.1923 12.5939 25.1446 12.7884 25.1122 12.9857ZM10.6116 18.2986C9.89809 18.2986 9.2285 18.2986 8.5589 18.2986C7.91742 18.2689 7.27888 18.4024 6.70298 18.6865C6.12708 18.9706 5.63262 19.3961 5.26582 19.9232C4.80353 20.496 4.5335 21.1999 4.49409 21.9349C4.45468 22.6699 4.64789 23.3987 5.04628 24.0176C5.40421 24.6066 5.91158 25.0906 6.51692 25.4202C7.12226 25.7499 7.80402 25.9136 8.49304 25.8946H22.6423C22.8948 25.8946 23.1583 25.8946 23.4107 25.8946C24.0497 25.8675 24.671 25.6765 25.215 25.3401C25.759 25.0038 26.2074 24.5332 26.5172 23.9737C26.8254 23.3806 26.9837 22.7211 26.9782 22.0527C26.9865 21.2396 26.7168 20.4481 26.2137 19.8093C25.7106 19.1705 25.0044 18.7227 24.212 18.5401C22.9698 18.3934 21.7197 18.3238 20.4689 18.3315C18.6797 18.3315 16.8904 18.3315 15.1012 18.3315C14.4703 18.3509 13.8539 18.1402 13.3668 17.7388C12.7192 17.2229 12.0166 16.7618 11.3361 16.2788C11.1385 16.1471 10.919 16.0483 10.6116 15.8727V18.2986ZM16.0342 14.8628V12.6674C16.2547 12.6624 16.4746 12.644 16.6928 12.6125C17.1895 12.5775 17.6725 12.4343 18.1079 12.1929C18.5434 11.9515 18.9207 11.6177 19.2136 11.2151C19.5064 10.8124 19.7076 10.3506 19.8031 9.86193C19.8986 9.37329 19.8861 8.86968 19.7664 8.3864C19.5528 7.68621 19.1303 7.06805 18.5554 6.61483C17.9805 6.16161 17.2808 5.89499 16.5501 5.85072C13.9815 5.85072 11.4019 5.85072 8.86626 5.85072C8.56555 5.84694 8.26593 5.88763 7.97713 5.97147C7.22338 6.16087 6.56092 6.61076 6.10691 7.24154C5.65291 7.87232 5.43663 8.64335 5.49633 9.41823C5.49918 10.0855 5.71309 10.7348 6.10744 11.2731C6.50179 11.8114 7.05635 12.2111 7.69172 12.4149C8.18144 12.5557 8.68639 12.6368 9.19557 12.6564C10.2164 12.6564 11.2373 12.6564 12.2581 12.6564C12.5996 12.6531 12.9335 12.7567 13.2131 12.9528C14.1352 13.5785 15.0134 14.1713 16.0342 14.8628Z" fill="#ffffff"/>
<path d="M18.7785 22.6565C18.3723 22.6565 18.1747 22.4479 18.1638 21.9979C18.1563 21.9125 18.1661 21.8264 18.1927 21.7449C18.2192 21.6634 18.262 21.5881 18.3184 21.5236C18.3748 21.459 18.4436 21.4064 18.5208 21.3691C18.5979 21.3318 18.6819 21.3104 18.7675 21.3063C18.9532 21.2992 19.1349 21.3617 19.277 21.4815C19.4191 21.6013 19.5114 21.7697 19.5359 21.954C19.5578 22.3601 19.2505 22.6345 18.7785 22.6565Z" fill="#ffffff"/>
<path d="M12.7631 22.5796C12.2911 22.5796 12.0825 22.393 12.0825 22.0088C12.0811 21.917 12.0979 21.8259 12.132 21.7408C12.1661 21.6556 12.2168 21.578 12.2811 21.5127C12.3455 21.4473 12.4222 21.3954 12.5069 21.3599C12.5915 21.3245 12.6823 21.3062 12.7741 21.3062C12.866 21.3021 12.9577 21.3183 13.0427 21.3536C13.1276 21.389 13.2037 21.4426 13.2656 21.5108C13.3274 21.5789 13.3735 21.6598 13.4005 21.7478C13.4275 21.8358 13.4347 21.9286 13.4217 22.0197C13.3997 22.4918 13.279 22.5905 12.7631 22.5796Z" fill="#ffffff"/>
<path d="M15.7378 22.5906C15.2987 22.5906 15.0682 22.3711 15.0902 21.9869C15.1067 21.8139 15.1823 21.6518 15.3042 21.5278C15.4262 21.4039 15.587 21.3257 15.7598 21.3063C15.8469 21.3074 15.9328 21.3266 16.012 21.3627C16.0913 21.3989 16.1621 21.4512 16.2199 21.5163C16.2778 21.5814 16.3214 21.6578 16.348 21.7408C16.3747 21.8237 16.3837 21.9113 16.3745 21.9979C16.3745 22.4699 16.2537 22.5906 15.7378 22.5906Z" fill="#ffffff"/>
<path d="M9.63464 8.61688C10.0847 8.61688 10.3372 8.88033 10.3042 9.28648C10.276 9.45622 10.1891 9.6107 10.0588 9.72302C9.92841 9.83533 9.76279 9.89838 9.59073 9.90119C9.50489 9.90611 9.41899 9.89265 9.33877 9.86169C9.25855 9.83074 9.18587 9.783 9.12559 9.72169C9.06532 9.66037 9.01883 9.58688 8.98925 9.50615C8.95967 9.42541 8.94767 9.33929 8.95407 9.25355C8.96505 8.79251 9.15165 8.61688 9.63464 8.61688Z" fill="#ffffff"/>
<path d="M15.661 9.91223C15.5692 9.91779 15.4774 9.90305 15.3919 9.86907C15.3065 9.83509 15.2296 9.7827 15.1667 9.71562C15.1038 9.64855 15.0565 9.56844 15.0281 9.481C14.9997 9.39356 14.9909 9.30093 15.0024 9.20971C15.0024 8.81454 15.2549 8.61695 15.6939 8.62793C15.7852 8.62064 15.8769 8.63381 15.9623 8.66647C16.0478 8.69914 16.1249 8.75048 16.188 8.81675C16.2512 8.88302 16.2987 8.96254 16.3271 9.04951C16.3556 9.13649 16.3643 9.22872 16.3526 9.31948C16.3502 9.40524 16.3299 9.48955 16.2929 9.56698C16.256 9.64442 16.2033 9.71327 16.1381 9.7691C16.073 9.82493 15.9969 9.86651 15.9147 9.89116C15.8325 9.91581 15.7461 9.92299 15.661 9.91223Z" fill="#ffffff"/>
<path d="M12.6314 9.91219C12.2142 9.91219 12.0057 9.64875 12.0276 9.17674C12.0496 8.70473 12.2142 8.60593 12.7082 8.62789C13.2022 8.64984 13.301 8.82547 13.279 9.29748C13.2886 9.38346 13.2782 9.4705 13.2486 9.55178C13.2189 9.63305 13.1708 9.70635 13.1081 9.76591C13.0453 9.82547 12.9696 9.86967 12.8869 9.89505C12.8042 9.92044 12.7167 9.9263 12.6314 9.91219Z" fill="black"/>
</svg>
