<svg width="32" height="32" viewBox="0 0 32 32" fill="none" xmlns="http://www.w3.org/2000/svg">
<path d="M15.3333 4C18.6927 4 21.9146 5.33452 24.29 7.70998C26.6655 10.0854 28 13.3073 28 16.6667C28 20.0261 26.6655 23.2479 24.29 25.6234C21.9146 27.9988 18.6927 29.3333 15.3333 29.3333C11.9739 29.3333 8.75211 27.9988 6.37665 25.6234C4.00119 23.2479 2.66667 20.0261 2.66667 16.6667C2.66667 13.3073 4.00119 10.0854 6.37665 7.70998C8.75211 5.33452 11.9739 4 15.3333 4ZM15.3333 5.33333C12.3276 5.33333 9.44487 6.52738 7.31946 8.65279C5.19405 10.7782 4.00001 13.6609 4.00001 16.6667C4.00001 19.6725 5.19405 22.5551 7.31946 24.6805C9.44487 26.806 12.3276 28 15.3333 28C18.3391 28 21.2218 26.806 23.3472 24.6805C25.4726 22.5551 26.6667 19.6725 26.6667 16.6667C26.6667 13.6609 25.4726 10.7782 23.3472 8.65279C21.2218 6.52738 18.3391 5.33333 15.3333 5.33333ZM14.6667 10.6667V13.3333H16V10.6667H14.6667ZM14.6667 16V22.6667H16V16H14.6667Z" fill="black"/>
</svg>
