<svg width="48" height="47" viewBox="0 0 48 47" fill="none" xmlns="http://www.w3.org/2000/svg">
<path d="M24 46.6563C36.9234 46.6563 47.4 36.2119 47.4 23.3282C47.4 10.4444 36.9234 0 24 0C11.0765 0 0.599976 10.4444 0.599976 23.3282C0.599976 36.2119 11.0765 46.6563 24 46.6563Z" fill="#F5FAFD"/>
<path d="M32.8271 19.7105C32.8271 19.0126 32.6271 18.2151 32.4271 17.5172C31.9271 16.3209 31.0271 15.4237 29.8271 14.9252C29.1271 14.6261 28.4271 14.5265 27.6271 14.5265C26.6271 14.5265 26.3271 14.4268 23.9271 14.4268C21.5271 14.4268 21.2271 14.4268 20.2271 14.5265C19.5271 14.5265 18.7271 14.7258 18.0271 14.9252C17.4271 15.1246 16.9271 15.5234 16.4271 15.9222C15.9271 16.3209 15.6271 16.9191 15.4271 17.5172C15.1271 18.2151 15.0271 18.9129 15.0271 19.7105C15.0271 20.7074 14.9271 21.0065 14.9271 23.3991C14.9271 25.7918 14.9271 26.0908 15.0271 27.0878C15.0271 27.7856 15.2271 28.5832 15.4271 29.281C15.9271 30.4773 16.8271 31.3746 18.0271 31.873C18.7271 32.1721 19.4271 32.2718 20.2271 32.2718C21.2271 32.2718 21.5271 32.3715 23.9271 32.3715C26.3271 32.3715 26.6271 32.3715 27.6271 32.2718C28.3271 32.2718 29.1271 32.0724 29.8271 31.873C31.0271 31.3746 31.9271 30.4773 32.4271 29.281C32.7271 28.5832 32.8271 27.8853 32.8271 27.0878C32.8271 26.0908 32.9271 25.7918 32.9271 23.3991C32.9271 21.0065 32.8271 20.6077 32.8271 19.7105ZM31.2271 26.9881C31.2271 27.5862 31.1271 28.0847 30.9271 28.6829C30.6271 29.4804 30.0271 30.0786 29.2271 30.3776C28.7271 30.577 28.1271 30.6767 27.5271 30.6767C26.6271 30.6767 26.3271 30.7764 23.9271 30.7764C21.5271 30.7764 21.2271 30.7764 20.3271 30.6767C19.7271 30.6767 19.2271 30.577 18.6271 30.3776C18.2271 30.2779 17.9271 29.9789 17.6271 29.6798C17.3271 29.3807 17.1271 29.0816 16.9271 28.6829C16.7271 28.1844 16.6271 27.5862 16.6271 26.9881C16.6271 26.0908 16.5271 25.7918 16.5271 23.3991C16.5271 21.0065 16.5271 20.7074 16.6271 19.8102C16.6271 19.212 16.7271 18.7136 16.9271 18.1154C17.0271 17.7166 17.3271 17.4175 17.6271 17.1185C17.9271 16.8194 18.2271 16.62 18.6271 16.4206C19.1271 16.2212 19.7271 16.1215 20.2271 16.1215C21.1271 16.1215 21.4271 16.0218 23.8271 16.0218C26.2271 16.0218 26.5271 16.0218 27.4271 16.1215C28.0271 16.1215 28.5271 16.2212 29.1271 16.4206C29.5271 16.5203 29.8271 16.8194 30.1271 17.1185C30.4271 17.4175 30.6271 17.7166 30.8271 18.1154C31.0271 18.6139 31.1271 19.212 31.1271 19.8102C31.1271 20.7074 31.2271 21.0065 31.2271 23.3991C31.2271 25.7918 31.2271 25.9911 31.2271 26.9881Z" fill="#062E47"/>
<path d="M23.927 18.8135C21.427 18.8135 19.327 20.8073 19.327 23.3994C19.327 25.9914 21.327 27.9852 23.927 27.9852C26.527 27.9852 28.527 25.9914 28.527 23.3994C28.527 20.8073 26.527 18.8135 23.927 18.8135ZM23.927 26.2905C22.327 26.2905 20.927 24.9944 20.927 23.2997C20.927 21.7046 22.227 20.3089 23.927 20.3089C25.527 20.3089 26.927 21.6049 26.927 23.2997C26.927 24.9944 25.627 26.2905 23.927 26.2905Z" fill="#062E47"/>
<path d="M29.8271 18.6142C29.8271 19.2124 29.3271 19.7108 28.7271 19.7108C28.1271 19.7108 27.6271 19.2124 27.6271 18.6142C27.6271 18.016 28.1271 17.5176 28.7271 17.5176C29.3271 17.5176 29.8271 18.016 29.8271 18.6142Z" fill="#062E47"/>
</svg>
