<svg width="32" height="32" viewBox="0 0 32 32" fill="none" xmlns="http://www.w3.org/2000/svg">
<g clip-path="url(#clip0_371_8331)">
<path d="M24.8889 26.6666H5.33334V7.11109H17.0844L18.8622 5.33331H5.33334C4.86184 5.33331 4.40965 5.52061 4.07626 5.85401C3.74286 6.18741 3.55556 6.63959 3.55556 7.11109V26.6666C3.55556 27.1381 3.74286 27.5903 4.07626 27.9237C4.40965 28.2571 4.86184 28.4444 5.33334 28.4444H24.8889C25.3604 28.4444 25.8126 28.2571 26.146 27.9237C26.4794 27.5903 26.6667 27.1381 26.6667 26.6666V13.3333L24.8889 15.1111V26.6666Z" fill="black"/>
<path d="M29.8044 5.19113L26.8089 2.19557C26.676 2.06227 26.518 1.9565 26.3441 1.88434C26.1702 1.81217 25.9838 1.77502 25.7956 1.77502C25.6073 1.77502 25.4209 1.81217 25.247 1.88434C25.0731 1.9565 24.9152 2.06227 24.7822 2.19557L12.5956 14.4534L11.6089 18.7289C11.5669 18.9362 11.5713 19.1502 11.6218 19.3555C11.6724 19.5608 11.7678 19.7524 11.9013 19.9165C12.0347 20.0805 12.2029 20.213 12.3936 20.3042C12.5844 20.3955 12.793 20.4434 13.0044 20.4445C13.1137 20.4565 13.224 20.4565 13.3333 20.4445L17.6444 19.4934L29.8044 7.2178C29.9378 7.08485 30.0435 6.92692 30.1157 6.75303C30.1879 6.57914 30.225 6.39273 30.225 6.20446C30.225 6.0162 30.1879 5.82978 30.1157 5.65589C30.0435 5.48201 29.9378 5.32407 29.8044 5.19113ZM16.72 17.8489L13.4667 18.5689L14.2222 15.3422L23.3956 6.10669L25.9022 8.61335L16.72 17.8489ZM26.9067 7.60891L24.4 5.10224L25.7778 3.6978L28.3022 6.22224L26.9067 7.60891Z" fill="black"/>
</g>
<defs>
<clipPath id="clip0_371_8331">
<rect width="32" height="32" fill="white"/>
</clipPath>
</defs>
</svg>
