<svg width="32" height="32" viewBox="0 0 32 32" fill="none" xmlns="http://www.w3.org/2000/svg">
<path d="M28.0375 20.2C28.9873 17.4806 28.9873 14.5195 28.0375 11.8L28 11.7C27.1126 9.22843 25.4837 7.09115 23.3359 5.58022C21.188 4.06929 18.626 3.25842 16 3.25842C13.374 3.25842 10.812 4.06929 8.66413 5.58022C6.51629 7.09115 4.88738 9.22843 4 11.7L3.9625 11.8C3.01268 14.5195 3.01268 17.4806 3.9625 20.2L4 20.3C4.88609 22.772 6.51389 24.9102 8.66094 26.4222C10.808 27.9343 13.3696 28.7465 15.9956 28.7478C18.6217 28.7492 21.1841 27.9397 23.3327 26.4299C25.4813 24.92 27.1113 22.7836 28 20.3125L28.0375 20.2ZM12.4625 20.75H19.5375C18.825 23.0375 17.6125 25.0875 16 26.6625C14.3875 25.0875 13.175 23.0375 12.4625 20.75ZM12.0875 19.25C11.6374 17.1067 11.6374 14.8933 12.0875 12.75H19.9125C20.3626 14.8933 20.3626 17.1067 19.9125 19.25H12.0875ZM4.75 16C4.7474 14.8992 4.90746 13.804 5.225 12.75H10.55C10.1499 14.8982 10.1499 17.1018 10.55 19.25H5.225C4.90746 18.196 4.7474 17.1008 4.75 16ZM19.5375 11.25H12.4625C13.175 8.9625 14.3875 6.9125 16 5.3375C17.6125 6.9125 18.825 8.9625 19.5375 11.25ZM21.4625 12.75H26.775C27.4087 14.8703 27.4087 17.1297 26.775 19.25H21.4625C21.8458 17.1003 21.8458 14.8997 21.4625 12.75ZM26.2 11.25H21.1125C20.4716 8.87867 19.2762 6.69363 17.625 4.875C19.4704 5.14456 21.22 5.86817 22.7166 6.98086C24.2133 8.09355 25.4103 9.56049 26.2 11.25ZM14.375 4.875C12.7238 6.69363 11.5284 8.87867 10.8875 11.25H5.8C6.58975 9.56049 7.78668 8.09355 9.28336 6.98086C10.78 5.86817 12.5296 5.14456 14.375 4.875ZM5.8 20.75H10.8875C11.531 23.124 12.7259 25.3125 14.375 27.1375C12.5298 26.8624 10.7813 26.1353 9.28519 25.0208C7.78908 23.9064 6.5918 22.4392 5.8 20.75ZM17.625 27.1375C19.2741 25.3125 20.469 23.124 21.1125 20.75H26.2C25.4082 22.4392 24.2109 23.9064 22.7148 25.0208C21.2187 26.1353 19.4702 26.8624 17.625 27.1375Z" fill="black"/>
</svg>
