<svg width="32" height="32" viewBox="0 0 32 32" fill="none" xmlns="http://www.w3.org/2000/svg">
<path d="M15.2 31.6C13.3965 31.6 11.6669 30.8836 10.3917 29.6083C9.11642 28.3331 8.39999 26.6035 8.39999 24.8V14.4C8.39999 13.2331 8.86356 12.1139 9.68872 11.2888C10.5139 10.4636 11.633 10 12.8 10C13.9669 10 15.0861 10.4636 15.9113 11.2888C16.7364 12.1139 17.2 13.2331 17.2 14.4V24H14.8V14.4C14.8 13.8696 14.5893 13.3609 14.2142 12.9858C13.8391 12.6107 13.3304 12.4 12.8 12.4C12.2696 12.4 11.7609 12.6107 11.3858 12.9858C11.0107 13.3609 10.8 13.8696 10.8 14.4V24.8C10.8 25.967 11.2636 27.0861 12.0887 27.9113C12.9139 28.7365 14.033 29.2 15.2 29.2C16.3669 29.2 17.4861 28.7365 18.3113 27.9113C19.1364 27.0861 19.6 25.967 19.6 24.8V6.40002C19.6 5.44524 19.2207 4.52957 18.5456 3.85444C17.8704 3.17931 16.9548 2.80002 16 2.80002C15.0452 2.80002 14.1295 3.17931 13.4544 3.85444C12.7793 4.52957 12.4 5.44524 12.4 6.40002V8.00002H9.99999V6.40002C9.99999 4.80873 10.6321 3.2826 11.7574 2.15738C12.8826 1.03217 14.4087 0.400024 16 0.400024C17.5913 0.400024 19.1174 1.03217 20.2426 2.15738C21.3679 3.2826 22 4.80873 22 6.40002V24.8C22 25.693 21.8241 26.5773 21.4824 27.4023C21.1406 28.2273 20.6398 28.9769 20.0083 29.6083C19.3769 30.2398 18.6273 30.7407 17.8022 31.0824C16.9772 31.4241 16.093 31.6 15.2 31.6Z" fill="black"/>
</svg>
