<svg width="32" height="32" viewBox="0 0 32 32" fill="none" xmlns="http://www.w3.org/2000/svg">
<path d="M25.3333 22C23.7333 22 22 21.7333 20.5333 21.2H20.1333C19.7333 21.2 19.4667 21.3333 19.2 21.6L16.2667 24.5333C12.5333 22.5333 9.33333 19.4666 7.46667 15.7333L10.4 12.8C10.8 12.4 10.9333 11.8666 10.6667 11.4666C10.2667 9.99998 10 8.26665 10 6.66665C10 5.99998 9.33333 5.33331 8.66667 5.33331H4C3.33333 5.33331 2.66667 5.99998 2.66667 6.66665C2.66667 19.2 12.8 29.3333 25.3333 29.3333C26 29.3333 26.6667 28.6666 26.6667 28V23.3333C26.6667 22.6666 26 22 25.3333 22ZM5.33333 7.99998H7.33333C7.46667 9.19998 7.73333 10.4 8 11.4666L6.4 13.0666C5.86667 11.4666 5.46667 9.73331 5.33333 7.99998ZM24 26.6666C22.2667 26.5333 20.5333 26.1333 18.9333 25.6L20.5333 24C21.6 24.2666 22.8 24.5333 24 24.5333V26.6666ZM21.3333 12V9.99998H16.6667L24 2.66665L22.6667 1.33331L15.3333 8.66665V3.99998H13.3333V12H21.3333ZM22.6667 7.99998V9.99998H27.3333L20 17.3333L21.3333 18.6666L28.6667 11.3333V16H30.6667V7.99998H22.6667Z" fill="black"/>
</svg>
