<svg width="32" height="32" viewBox="0 0 32 32" fill="none" xmlns="http://www.w3.org/2000/svg">
<g clip-path="url(#clip0_371_8216)">
<path d="M6.66667 29.3333C5.93333 29.3333 5.30533 29.0725 4.78267 28.5507C4.26089 28.028 4 27.4 4 26.6667V8.00002C4 7.26669 4.26089 6.63913 4.78267 6.11735C5.30533 5.59469 5.93333 5.33335 6.66667 5.33335H8V2.66669H10.6667V5.33335H21.3333V2.66669H24V5.33335H25.3333C26.0667 5.33335 26.6947 5.59469 27.2173 6.11735C27.7391 6.63913 28 7.26669 28 8.00002V16H25.3333V13.3334H6.66667V26.6667H16V29.3333H6.66667ZM25.3333 32C23.7111 32 22.2942 31.4947 21.0827 30.484C19.872 29.4725 19.1111 28.2 18.8 26.6667H20.8667C21.1556 27.6445 21.7058 28.4445 22.5173 29.0667C23.328 29.6889 24.2667 30 25.3333 30C26.6222 30 27.7222 29.5445 28.6333 28.6334C29.5444 27.7222 30 26.6222 30 25.3334C30 24.0445 29.5444 22.9445 28.6333 22.0333C27.7222 21.1222 26.6222 20.6667 25.3333 20.6667C24.6889 20.6667 24.0889 20.7831 23.5333 21.016C22.9778 21.2498 22.4889 21.5778 22.0667 22H24V24H18.6667V18.6667H20.6667V20.5667C21.2667 19.9889 21.9667 19.5276 22.7667 19.1827C23.5667 18.8387 24.4222 18.6667 25.3333 18.6667C27.1778 18.6667 28.7502 19.3169 30.0507 20.6174C31.3502 21.9169 32 23.4889 32 25.3334C32 27.1778 31.3502 28.7502 30.0507 30.0507C28.7502 31.3502 27.1778 32 25.3333 32ZM6.66667 10.6667H25.3333V8.00002H6.66667V10.6667ZM6.66667 10.6667V8.00002V10.6667Z" fill="black"/>
</g>
<defs>
<clipPath id="clip0_371_8216">
<rect width="32" height="32" fill="white"/>
</clipPath>
</defs>
</svg>
