<svg width="45" height="45" viewBox="0 0 45 45" fill="none" xmlns="http://www.w3.org/2000/svg">
<path fill-rule="evenodd" clip-rule="evenodd" d="M5.95968 11.25L8.43749 13.7278L6.69655 15.4688L2.01093 10.7803V9.0422L6.69374 4.35376L8.43749 6.0947L6.09468 8.43751H42.1875V11.25H5.95968ZM11.25 40.9106V15.3422L12.6562 14.0625H18.2812L19.6875 15.3422V40.9078L18.2812 42.1875H12.6562L11.25 40.9106ZM16.875 39.6309V16.6191H14.0625V39.6309H16.875ZM22.5 35.3138V15.3113L23.9062 14.0625H29.5312L30.9375 15.3113V35.3138L29.5312 36.5625H23.9062L22.5 35.3138ZM28.125 34.0622V16.5656H25.3125V34.065H28.125V34.0622ZM33.75 15.2691V29.7338L35.1562 30.9375H40.7812L42.1875 29.7338V15.2691L40.7812 14.0625H35.1562L33.75 15.2691ZM39.375 16.4728V28.5272H36.5625V16.4728H39.375Z" fill="#2F96D7"/>
</svg>
