<svg width="48" height="47" viewBox="0 0 48 47" fill="none" xmlns="http://www.w3.org/2000/svg">
<path d="M24.2 46.6563C37.1235 46.6563 47.6 36.2119 47.6 23.3282C47.6 10.4444 37.1235 0 24.2 0C11.2765 0 0.799988 10.4444 0.799988 23.3282C0.799988 36.2119 11.2765 46.6563 24.2 46.6563Z" fill="#F5FAFD"/>
<path d="M33.5066 17.6326C32.8066 17.9316 32.1066 18.131 31.3066 18.2307C32.1066 17.7323 32.7066 17.0344 33.0066 16.1372C32.3066 16.5359 31.4066 16.9347 30.6066 17.0344C29.2066 15.539 26.7066 15.4393 25.2066 16.835C24.4066 17.5329 24.0066 18.5298 24.0066 19.6264C24.0066 19.9255 24.0066 20.2246 24.1066 20.5237C21.0066 20.3243 18.2066 18.9286 16.2066 16.5359C15.2066 18.2307 15.7066 20.5237 17.4066 21.6203C16.8066 21.6203 16.2066 21.4209 15.7066 21.1218C15.7066 22.9163 17.0066 24.5114 18.8066 24.9102C18.5066 25.0098 18.1066 25.0098 17.8066 25.0098C17.6066 25.0098 17.3066 25.0098 17.1066 24.9102C17.6066 26.5052 19.0066 27.5022 20.7066 27.6019C19.3066 28.6985 17.7066 29.197 16.0066 29.197C15.7066 29.197 15.4066 29.197 15.1066 29.0973C16.8066 30.1939 18.9066 30.792 21.0066 30.792C27.0066 30.792 31.8066 26.0068 31.9066 20.1249V20.0252C31.9066 19.8258 31.9066 19.7261 31.9066 19.5267C32.4066 19.0283 33.0066 18.3304 33.5066 17.6326Z" fill="#062E47"/>
</svg>
