<svg width="16" height="16" viewBox="0 0 16 16" fill="none" xmlns="http://www.w3.org/2000/svg">
<g clip-path="url(#clip0_2191_1172)">
<path d="M15.2661 14.542H0.727133C0.32544 14.542 0 14.8674 0 15.2695C0 15.6708 0.32544 15.9963 0.727133 15.9963H15.2657C15.6674 15.9963 15.9929 15.6708 15.9929 15.2695C15.9925 14.8674 15.6671 14.542 15.2661 14.542Z" fill="#FDA813"/>
<path d="M1.63582 12.6516C1.23413 12.6516 0.908691 12.9771 0.908691 13.3787C0.908691 13.7804 1.23413 14.1062 1.63582 14.1062H14.3573C14.7589 14.1062 15.0844 13.7804 15.0844 13.3787C15.0844 12.9771 14.7589 12.6516 14.3573 12.6516H14.1758V6.10878H14.3573C14.5584 6.10878 14.7205 5.94606 14.7205 5.74555C14.7205 5.54504 14.5578 5.38232 14.3573 5.38232H1.63582C1.43498 5.38232 1.2726 5.54504 1.2726 5.74555C1.2726 5.94606 1.43532 6.10878 1.63582 6.10878H1.81761V12.6513H1.63582V12.6516ZM12.7215 6.10878V12.6513H10.5408V6.10878H12.7215ZM9.08656 6.10878V12.6513H6.90584V6.10878H9.08656ZM3.27119 6.10878H5.45191V12.6513H3.27119V6.10878Z" fill="#FDA813"/>
<path d="M0.727147 4.72972H15.2657C15.2681 4.72972 15.2708 4.72972 15.2729 4.72972C15.6749 4.72972 16 4.40428 16 4.00258C16 3.68327 15.7944 3.41264 15.5088 3.3146L8.29533 0.0687112C8.10571 -0.0163933 7.88887 -0.0163933 7.69891 0.0687112L0.428941 3.33979C0.116096 3.48072 -0.0558148 3.82046 0.0163539 4.15543C0.0881822 4.4904 0.384346 4.72972 0.727147 4.72972Z" fill="#FDA813"/>
</g>
<defs>
<clipPath id="clip0_2191_1172">
<rect width="16" height="16" fill="white"/>
</clipPath>
</defs>
</svg>
