<svg width="167" height="138" viewBox="0 0 167 138" fill="none" xmlns="http://www.w3.org/2000/svg">
<g clip-path="url(#clip0_127_33808)">
<rect x="0.207031" y="0.62207" width="166.649" height="137.051" fill="#0D67AA"/>
<g clip-path="url(#clip1_127_33808)">
<path d="M77.9078 67.701L104.374 41.2344L111.444 48.3044L106.731 53.0177L113.801 60.0877L102.018 71.8744L94.9478 64.8044L84.9811 74.771C86.8163 78.302 87.3281 82.3729 86.424 86.2483C85.52 90.1237 83.2596 93.5479 80.0515 95.9023C76.8433 98.2567 72.8988 99.3861 68.9307 99.0863C64.9626 98.7865 61.2325 97.0774 58.4145 94.2677C55.595 91.4527 53.8772 87.7209 53.5723 83.7484C53.2675 79.7759 54.3958 75.8257 56.7527 72.6134C59.1097 69.4012 62.5394 67.1396 66.4203 66.2384C70.3012 65.3373 74.3765 65.8561 77.9078 67.701ZM74.9111 87.1944C75.5479 86.5794 76.0557 85.8438 76.4051 85.0304C76.7545 84.217 76.9384 83.3422 76.9461 82.457C76.9538 81.5719 76.7851 80.694 76.4499 79.8747C76.1147 79.0554 75.6197 78.311 74.9938 77.6851C74.3678 77.0591 73.6235 76.5641 72.8042 76.2289C71.9848 75.8937 71.107 75.725 70.2218 75.7327C69.3366 75.7404 68.4618 75.9243 67.6484 76.2737C66.8351 76.6231 66.0994 77.131 65.4845 77.7677C64.2701 79.0251 63.5981 80.7091 63.6133 82.457C63.6285 84.205 64.3296 85.8771 65.5657 87.1132C66.8017 88.3492 68.4738 89.0503 70.2218 89.0655C71.9698 89.0807 73.6538 88.4088 74.9111 87.1944Z" fill="white"/>
</g>
</g>
<defs>
<clipPath id="clip0_127_33808">
<rect width="166.649" height="137.051" fill="white" transform="translate(0.207031 0.62207)"/>
</clipPath>
<clipPath id="clip1_127_33808">
<rect width="80" height="80" fill="white" transform="translate(43.5312 29.1475)"/>
</clipPath>
</defs>
</svg>
