<svg width="91" height="91" viewBox="0 0 91 91" fill="none" xmlns="http://www.w3.org/2000/svg">
<g clip-path="url(#clip0_127_40186)">
<rect x="-37.5391" y="0.855469" width="166.649" height="137.051" fill="#26D159"/>
<g clip-path="url(#clip1_127_40186)">
<path d="M47.1289 49.5766V62.8066H32.1289C32.1287 60.9149 32.5311 59.0447 33.3094 57.3204C34.0876 55.5961 35.2238 54.0572 36.6426 52.8058C38.0614 51.5544 39.7302 50.6193 41.5382 50.0626C43.3462 49.5058 45.252 49.3402 47.1289 49.5766ZM45.4622 47.8066C39.9372 47.8066 35.4622 43.3316 35.4622 37.8066C35.4622 32.2816 39.9372 27.8066 45.4622 27.8066C50.9872 27.8066 55.4622 32.2816 55.4622 37.8066C55.4622 43.3316 50.9872 47.8066 45.4622 47.8066ZM55.1172 59.33L61.0089 53.4383L63.3672 55.795L55.1172 64.045L49.2239 58.1516L51.5822 55.795L55.1156 59.33H55.1172Z" fill="white"/>
</g>
</g>
<defs>
<clipPath id="clip0_127_40186">
<rect width="90" height="90" fill="white" transform="translate(0.460938 0.855469)"/>
</clipPath>
<clipPath id="clip1_127_40186">
<rect width="40" height="40" fill="white" transform="translate(25.4609 26.1406)"/>
</clipPath>
</defs>
</svg>
