<svg width="91" height="91" viewBox="0 0 91 91" fill="none" xmlns="http://www.w3.org/2000/svg">
<g clip-path="url(#clip0_127_39711)">
<rect x="-37.3672" y="0.857422" width="166.649" height="137.051" fill="#FF5C5C"/>
<g clip-path="url(#clip1_127_39711)">
<path d="M48.9674 49.6101V62.5234H32.3008C32.3003 60.4882 32.7656 58.4799 33.6613 56.6524C34.5569 54.8249 35.859 53.2267 37.4678 51.9802C39.0766 50.7337 40.9494 49.872 42.9427 49.4612C44.936 49.0504 46.9969 49.1013 48.9674 49.6101ZM45.6341 47.5234C40.1091 47.5234 35.6341 43.0484 35.6341 37.5234C35.6341 31.9984 40.1091 27.5234 45.6341 27.5234C51.1591 27.5234 55.6341 31.9984 55.6341 37.5234C55.6341 43.0484 51.1591 47.5234 45.6341 47.5234ZM57.3008 53.5001L60.8358 49.9634L63.1941 52.3218L59.6574 55.8568L63.1941 59.3918L60.8358 61.7501L57.3008 58.2134L53.7658 61.7501L51.4074 59.3918L54.9441 55.8568L51.4074 52.3218L53.7658 49.9634L57.3008 53.5001Z" fill="white"/>
</g>
</g>
<defs>
<clipPath id="clip0_127_39711">
<rect width="90" height="90" fill="white" transform="translate(0.632812 0.857422)"/>
</clipPath>
<clipPath id="clip1_127_39711">
<rect width="40" height="40" fill="white" transform="translate(25.6328 25.8574)"/>
</clipPath>
</defs>
</svg>
